<svg width="26" height="26" viewBox="0 0 26 26" fill="none" xmlns="http://www.w3.org/2000/svg">
<path d="M25.1213 5.1211L17.2434 12.9998L25.1213 20.8782C26.2931 22.0504 26.2931 23.9493 25.1213 25.1215C24.5358 25.707 23.7682 26 23.001 26C22.2325 26 21.4648 25.7075 20.8797 25.1215L13.0001 17.2423L5.1211 25.1215C4.53569 25.707 3.768 25.9999 3.00009 25.9999C2.2324 25.9999 1.46523 25.7074 0.879297 25.1215C-0.292502 23.9497 -0.292502 22.0508 0.879297 20.8781L8.75697 12.9997L0.878849 5.1211C-0.29295 3.94931 -0.29295 2.04998 0.878849 0.878177C2.05042 -0.292726 3.94863 -0.292726 5.12066 0.878177L13 8.7569L20.8788 0.878177C22.0511 -0.292726 23.9495 -0.292726 25.1209 0.878177C26.2931 2.04998 26.2931 3.94931 25.1213 5.1211Z" fill="#009EFD"/>
</svg>
