<svg width="35" height="35" viewBox="0 0 35 35" fill="none" xmlns="http://www.w3.org/2000/svg">
<path d="M34.0976 11.0145C32.8983 9.81511 30.9467 9.81518 29.7469 11.0148C29.3779 11.3842 27.0219 13.7421 26.662 14.1023V5.97639C26.662 5.15471 26.342 4.38225 25.7609 3.80126L22.8608 0.900977C22.2798 0.319922 21.5073 0 20.6856 0H3.078C1.3818 0 0.00183105 1.37997 0.00183105 3.07617V31.9238C0.00183105 33.62 1.3818 35 3.078 35H23.5858C25.282 35 26.662 33.62 26.662 31.9238V22.8068L34.0976 15.3649C35.2998 14.1628 35.3001 12.2168 34.0976 11.0145ZM20.5097 2.05078C20.7034 2.05078 21.0767 2.01722 21.4107 2.35108L24.3109 5.25137C24.6363 5.57683 24.6113 5.93346 24.6113 6.15234H20.5097V2.05078ZM24.6112 31.9238C24.6112 32.4892 24.1513 32.9492 23.5858 32.9492H3.078C2.5126 32.9492 2.05261 32.4892 2.05261 31.9238V3.07617C2.05261 2.51077 2.5126 2.05078 3.078 2.05078H18.4589V7.17773C18.4589 7.74402 18.918 8.20312 19.4843 8.20312H24.6112V16.1549C24.6112 16.1549 21.586 19.1827 21.5859 19.1827L20.1365 20.6322C20.0239 20.7447 19.939 20.882 19.8887 21.033L18.4386 25.3834C18.3157 25.7519 18.4116 26.1581 18.6863 26.4327C18.9613 26.7077 19.3677 26.8032 19.7356 26.6805L24.086 25.2304C24.237 25.18 24.3743 25.0952 24.4868 24.9826L24.6112 24.8582V31.9238ZM22.3116 21.3573L23.7617 22.8074L23.2078 23.3613L21.0327 24.0864L21.7577 21.9112L22.3116 21.3573ZM25.2115 21.357L23.7614 19.9069C24.5336 19.1341 27.9631 15.7016 28.6905 14.9736L30.1406 16.4237L25.2115 21.357ZM32.6472 13.9151L31.5901 14.973L30.14 13.5229L31.1974 12.4646C31.5975 12.0648 32.2478 12.0649 32.6476 12.4646C33.0473 12.8646 33.0494 13.5128 32.6472 13.9151Z" fill="white"/>
<path d="M19.4836 10.2539H5.12817C4.56188 10.2539 4.10278 10.713 4.10278 11.2793C4.10278 11.8456 4.56188 12.3047 5.12817 12.3047H19.4836C20.0499 12.3047 20.509 11.8456 20.509 11.2793C20.509 10.713 20.0499 10.2539 19.4836 10.2539Z" fill="white"/>
<path d="M15.3821 14.3555H5.12817C4.56188 14.3555 4.10278 14.8146 4.10278 15.3809C4.10278 15.9471 4.56188 16.4062 5.12817 16.4062H15.3821C15.9484 16.4062 16.4075 15.9471 16.4075 15.3809C16.4075 14.8146 15.9484 14.3555 15.3821 14.3555Z" fill="white"/>
<path d="M15.3821 18.457H5.12817C4.56188 18.457 4.10278 18.9161 4.10278 19.4824C4.10278 20.0487 4.56188 20.5078 5.12817 20.5078H15.3821C15.9484 20.5078 16.4075 20.0487 16.4075 19.4824C16.4075 18.9161 15.9484 18.457 15.3821 18.457Z" fill="white"/>
<path d="M15.3821 22.5586H5.12817C4.56188 22.5586 4.10278 23.0177 4.10278 23.584C4.10278 24.1503 4.56188 24.6094 5.12817 24.6094H15.3821C15.9484 24.6094 16.4075 24.1503 16.4075 23.584C16.4075 23.0177 15.9484 22.5586 15.3821 22.5586Z" fill="white"/>
<path d="M19.4836 28.8477H13.3313C12.765 28.8477 12.3059 29.3068 12.3059 29.873C12.3059 30.4393 12.765 30.8984 13.3313 30.8984H19.4836C20.0499 30.8984 20.509 30.4393 20.509 29.873C20.509 29.3068 20.0499 28.8477 19.4836 28.8477Z" fill="white"/>
</svg>
