<svg width="28" height="28" viewBox="0 0 28 28" fill="none" xmlns="http://www.w3.org/2000/svg">
<g clip-path="url(#clip0)">
<path d="M14.009 28C8.63635 28 4.26562 23.6049 4.26562 18.2026C4.26562 15.8483 5.06757 14.2476 5.9964 12.3942C6.51187 11.365 7.04507 10.3009 7.53748 8.94312L8.04974 7.53043C8.80511 7.71542 8.54919 7.65283 9.30435 7.83783L9.10568 9.32742C8.94312 10.5446 9.16528 11.9253 9.71494 13.1152C9.948 13.62 10.2293 14.0679 10.5417 14.4403C10.4333 12.4638 10.6359 10.5587 11.1473 8.7562C11.6835 6.8667 12.5437 5.1246 13.7043 3.57797C15.1489 1.65344 16.8079 0.396484 17.5771 0.293091L19.7574 0L18.2902 1.63934C17.6237 2.38382 17.2567 3.34491 17.2567 4.34552C17.2567 6.27966 18.4431 7.65219 19.8167 9.24155C20.6975 10.2603 21.6956 11.4152 22.4516 12.8338C23.3268 14.4762 23.7521 16.2321 23.7521 18.2026C23.7521 23.6049 19.3814 28 14.009 28Z" fill="#FF972F"/>
</g>
<defs>
<clipPath id="clip0">
<rect width="28" height="28" fill="white"/>
</clipPath>
</defs>
</svg>
