<svg width="40" height="40" viewBox="0 0 40 40" fill="none" xmlns="http://www.w3.org/2000/svg">
<g clip-path="url(#clip0)">
<path d="M20.2565 14.8449C18.0031 14.8449 16.1763 16.6717 16.1763 18.9251C16.1763 21.1785 18.003 23.0054 20.2565 23.0054C22.5099 23.0054 24.3367 21.1786 24.3367 18.9251C24.3367 16.6717 22.51 14.8449 20.2565 14.8449ZM20.2565 21.0623C19.0761 21.0623 18.1192 20.1054 18.1192 18.9251C18.1192 17.7447 19.0761 16.7878 20.2565 16.7878C21.4369 16.7878 22.3938 17.7447 22.3938 18.9251C22.3938 20.1054 21.4369 21.0623 20.2565 21.0623Z" fill="#6E48AA"/>
<path d="M36.5289 5.51862L10.0076 2.50711C8.97828 2.36077 7.93539 2.66126 7.14177 3.3329C6.34824 3.9482 5.83958 4.86027 5.73313 5.85871L5.24744 9.84179H3.74154C1.60427 9.84179 0.00131269 11.7361 0.00131269 13.8734V33.7401C-0.052519 35.7782 1.55602 37.4741 3.59418 37.5279C3.64327 37.5292 3.69245 37.5295 3.74154 37.5288H30.4086C32.5459 37.5288 34.4888 35.8774 34.4888 33.7401V32.9629C35.1514 32.8349 35.78 32.5702 36.3346 32.1858C37.1216 31.5231 37.6256 30.5847 37.7433 29.5628L39.9777 9.84179C40.2055 7.69959 38.6682 5.77253 36.5289 5.51862ZM32.5459 33.7401C32.5459 34.8087 31.4772 35.5859 30.4086 35.5859H3.74154C2.7762 35.6142 1.97068 34.8547 1.94232 33.8893C1.94083 33.8396 1.94148 33.7898 1.94427 33.7401V30.1456L9.47327 24.6082C10.3777 23.9138 11.6516 23.9755 12.4849 24.7539L17.7794 29.417C18.5835 30.0921 19.5956 30.4695 20.6453 30.4856C21.4661 30.4957 22.2734 30.2771 22.9769 29.8542L32.5459 24.3168V33.7401H32.5459ZM32.5459 22.0338L21.9567 28.2027C21.0474 28.7414 19.8965 28.6438 19.0908 27.9598L13.7477 23.2481C12.2164 21.9323 9.97812 21.8516 8.35601 23.0538L1.94427 27.7169V13.8734C1.94427 12.8048 2.67291 11.7848 3.74154 11.7848H30.4086C31.5503 11.8321 32.4723 12.7332 32.5459 13.8734V22.0338ZM38.0366 9.57951C38.0359 9.58593 38.0354 9.59244 38.0346 9.59885L35.7517 29.3198C35.7556 29.8312 35.5224 30.3155 35.1202 30.6313C34.9259 30.8256 34.4887 30.9228 34.4887 31.02V13.8734C34.412 11.6605 32.6221 9.89191 30.4085 9.84179H7.1903L7.62747 6.05303C7.7223 5.56241 7.97881 5.11781 8.3561 4.79008C8.7821 4.49554 9.29718 4.35821 9.81337 4.40145L36.2862 7.46158C37.3543 7.56301 38.138 8.51125 38.0366 9.57951Z" fill="#6E48AA"/>
</g>
<defs>
<clipPath id="clip0">
<rect width="40" height="40" fill="white"/>
</clipPath>
</defs>
</svg>
