<svg width="22" height="22" viewBox="0 0 22 22" fill="none" xmlns="http://www.w3.org/2000/svg">
<g clip-path="url(#clip0)">
<path d="M17.4419 7.80486C15.5766 5.74471 14.4681 3.93116 13.8665 2.77251C13.2151 1.51754 13.0016 0.739329 13 0.733136L12.806 0L12.1135 0.308917C12.0325 0.345 10.119 1.21765 9.04677 3.36201C8.50854 4.43851 8.4009 5.63706 8.40541 6.4529C8.40804 6.92769 8.07164 7.33996 7.60557 7.43315C7.27881 7.49844 6.94267 7.39685 6.70682 7.16101L5.41675 5.87093L4.97296 6.48288C4.9269 6.5464 3.84236 8.04213 3.64491 8.34098C2.68075 9.8005 2.178 11.5007 2.19103 13.2577C2.20849 15.6044 3.13133 17.8029 4.78954 19.4485C6.44766 21.0938 8.65326 22 11.0001 22C15.8574 22 19.8092 18.0482 19.8092 13.1908C19.8092 11.4296 18.9464 9.46655 17.4419 7.80486ZM11.0001 20.7098C8.99602 20.7098 7.11319 19.9366 5.6984 18.5326C4.28356 17.1286 3.4962 15.2519 3.48127 13.2481C3.47009 11.7481 3.89895 10.2972 4.72146 9.05218C4.82188 8.9002 5.22472 8.33819 5.57441 7.8532L5.79456 8.07335C6.3361 8.61489 7.10756 8.84855 7.85871 8.69832C8.92906 8.48424 9.70164 7.53697 9.69566 6.44585C9.69192 5.7706 9.77655 4.78759 10.2008 3.93899C10.7172 2.90618 11.4893 2.23119 12.0257 1.85583C12.5109 3.08995 13.7409 5.6396 16.4855 8.67089C17.0969 9.34618 18.519 11.1384 18.519 13.1908C18.519 17.3368 15.146 20.7098 11.0001 20.7098Z" fill="white"/>
<path d="M12.3075 10.9453L8.26233 16.8693H9.69252L13.7377 10.9453H12.3075Z" fill="white"/>
<path d="M13.1707 13.6534C12.2737 13.6534 11.5966 14.2543 11.5966 15.3037C11.5966 16.3615 12.2737 16.9539 13.1707 16.9539C14.0678 16.9539 14.7448 16.3615 14.7448 15.3037C14.7448 14.2543 14.0678 13.6534 13.1707 13.6534ZM13.1707 16.0399C12.9846 16.0399 12.7984 15.8707 12.7984 15.3037C12.7984 14.7367 12.9846 14.5674 13.1707 14.5674C13.3569 14.5674 13.5431 14.7367 13.5431 15.3037C13.5431 15.8707 13.3569 16.0399 13.1707 16.0399Z" fill="white"/>
<path d="M10.4034 12.511C10.4034 11.4616 9.7264 10.8607 8.82932 10.8607C7.93225 10.8607 7.25523 11.4616 7.25523 12.511C7.25523 13.5688 7.93225 14.1612 8.82932 14.1612C9.7264 14.1612 10.4034 13.5688 10.4034 12.511ZM8.45697 12.511C8.45697 11.944 8.64315 11.7747 8.82932 11.7747C9.0155 11.7747 9.20167 11.944 9.20167 12.511C9.20167 13.078 9.0155 13.2472 8.82932 13.2472C8.64315 13.2472 8.45697 13.078 8.45697 12.511Z" fill="white"/>
</g>
<defs>
<clipPath id="clip0">
<rect width="22" height="22" fill="white"/>
</clipPath>
</defs>
</svg>
