<svg width="28" height="28" viewBox="0 0 28 28"  xmlns="http://www.w3.org/2000/svg">
<path d="M20.243 0H7.71546C3.46116 0 0 3.46132 0 7.71563V20.2432C0 24.4977 3.46116 27.9588 7.71546 27.9588H20.243C24.4977 27.9588 27.9588 24.4975 27.9588 20.2432V7.71563C27.959 3.46132 24.4977 0 20.243 0ZM25.4784 20.2432C25.4784 23.1298 23.1298 25.4782 20.2432 25.4782H7.71546C4.82898 25.4784 2.48064 23.1298 2.48064 20.2432V7.71563C2.48064 4.82915 4.82898 2.48064 7.71546 2.48064H20.243C23.1297 2.48064 25.4782 4.82915 25.4782 7.71563V20.2432H25.4784Z"/>
<path d="M13.9794 6.77539C10.0069 6.77539 6.77513 10.0072 6.77513 13.9797C6.77513 17.952 10.0069 21.1836 13.9794 21.1836C17.9519 21.1836 21.1837 17.952 21.1837 13.9797C21.1837 10.0072 17.9519 6.77539 13.9794 6.77539ZM13.9794 18.7028C11.3749 18.7028 9.25577 16.584 9.25577 13.9795C9.25577 11.3748 11.3747 9.25587 13.9794 9.25587C16.5841 9.25587 18.7031 11.3748 18.7031 13.9795C18.7031 16.584 16.5839 18.7028 13.9794 18.7028Z" />
<path d="M21.4858 4.67188C21.0079 4.67188 20.5384 4.86537 20.2009 5.20439C19.8617 5.54175 19.6667 6.01142 19.6667 6.49101C19.6667 6.96912 19.8618 7.43862 20.2009 7.77764C20.5382 8.11501 21.0079 8.31015 21.4858 8.31015C21.9654 8.31015 22.4334 8.11501 22.7725 7.77764C23.1115 7.43862 23.305 6.96895 23.305 6.49101C23.305 6.01142 23.1115 5.54175 22.7725 5.20439C22.4351 4.86537 21.9654 4.67188 21.4858 4.67188Z" />
</svg>
