<svg width="20" height="20" viewBox="0 0 20 20" fill="none" xmlns="http://www.w3.org/2000/svg">
    <path d="M7.27158 5.5415H6.83365C6.68121 5.5415 6.43372 5.59857 6.22437 5.82639C6.01486 6.05435 5.4245 6.60535 5.4245 7.72595C5.4245 8.84656 6.24344 9.92932 6.35757 10.0814C6.47186 10.2334 7.93839 12.6065 10.2611 13.5194C12.1915 14.2781 12.5844 14.1272 13.0032 14.0892C13.4222 14.0513 14.3553 13.5383 14.5457 13.0066C14.7362 12.4748 14.7362 12.0189 14.6791 11.9236C14.6219 11.8287 14.4695 11.7718 14.241 11.658C14.0125 11.544 12.8925 10.9837 12.683 10.9076C12.4735 10.8317 12.3212 10.7937 12.1687 11.0218C12.0163 11.2495 11.5675 11.7762 11.4342 11.9282C11.301 12.0804 11.1676 12.0994 10.939 11.9854C10.7104 11.8712 9.982 11.6264 9.10904 10.8506C8.42957 10.2469 7.95807 9.4769 7.82471 9.24893C7.6915 9.02112 7.81052 8.89783 7.92511 8.78415C8.0278 8.68222 8.1665 8.54275 8.28079 8.40985C8.39493 8.27679 8.42743 8.18188 8.50372 8.02991C8.57986 7.87793 8.54172 7.74487 8.48465 7.63104C8.42743 7.51706 7.98889 6.39081 7.78564 5.94037H7.7858C7.61459 5.56104 7.43439 5.54822 7.27158 5.5415Z"
          fill="#FF972F"/>
    <circle cx="10" cy="10" r="9.25" fill="none" stroke="#FF9F26" stroke-width="1.5"/>
</svg>
