<svg width="67" height="67" viewBox="0 0 67 67" fill="none" xmlns="http://www.w3.org/2000/svg">
<g clip-path="url(#clip0)">
<path d="M49.4205 64.2956C48.893 64.2956 48.3542 64.2287 47.8205 64.0891L4.64918 52.5282C1.31883 51.6096 -0.666095 48.1648 0.204959 44.837L4.95077 26.6379C5.24113 25.5209 6.38311 24.8426 7.50515 25.1416C8.62208 25.432 9.2948 26.5765 9.00189 27.696L4.25557 45.8982C3.96266 47.0202 4.62975 48.1786 5.74668 48.4858L48.893 60.0411C50.0013 60.334 51.1458 59.6751 51.4361 58.5724L52.9099 52.6259C53.1895 51.5038 54.3228 50.8224 55.4448 51.0964C56.5674 51.3755 57.2513 52.5088 56.9748 53.6308L55.4954 59.6055C54.7496 62.4334 52.2039 64.2956 49.4205 64.2956Z" fill="#FF972F"/>
<path d="M60.7188 47.5452H17.4467C13.9824 47.5452 11.1653 44.7281 11.1653 41.2638V9.15855C11.1653 5.69427 13.9824 2.87714 17.4467 2.87714H60.7188C64.183 2.87714 67.0002 5.69427 67.0002 9.15855V41.2638C67.0002 44.7281 64.183 47.5452 60.7188 47.5452ZM17.4467 7.06475C16.2909 7.06475 15.3529 8.00277 15.3529 9.15855V41.2638C15.3529 42.4196 16.2909 43.3576 17.4467 43.3576H60.7188C61.8745 43.3576 62.8125 42.4196 62.8125 41.2638V9.15855C62.8125 8.00277 61.8745 7.06475 60.7188 7.06475H17.4467Z" fill="#FF972F"/>
<path d="M25.124 22.4196C22.0447 22.4196 19.5404 19.9153 19.5404 16.836C19.5404 13.7566 22.0447 11.2523 25.124 11.2523C28.2034 11.2523 30.7072 13.7566 30.7072 16.836C30.7072 19.9153 28.2034 22.4196 25.124 22.4196ZM25.124 15.4399C24.3532 15.4399 23.728 16.0656 23.728 16.836C23.728 17.6063 24.3532 18.232 25.124 18.232C25.8944 18.232 26.5196 17.6063 26.5196 16.836C26.5196 16.0656 25.8944 15.4399 25.124 15.4399Z" fill="#FF972F"/>
<path d="M13.3148 44.6974C12.7791 44.6974 12.2429 44.4935 11.8355 44.0835C11.0176 43.2656 11.0176 41.9391 11.8355 41.1212L24.454 28.5027C26.3638 26.5929 29.4707 26.5929 31.3774 28.5027L34.7528 31.878L45.1211 19.4323C46.0479 18.321 47.4076 17.6789 48.8512 17.6707C50.4031 17.5844 51.6596 18.2903 52.5946 19.3878L66.4921 35.602C67.2455 36.4787 67.1423 37.8021 66.2656 38.5556C65.3864 39.3096 64.066 39.2063 63.312 38.3297L49.4094 22.1098C49.2248 21.889 48.9989 21.9003 48.8732 21.8609C48.7535 21.8609 48.5215 21.8972 48.3374 22.115L36.5005 36.3253C36.1233 36.7772 35.5737 37.0512 34.9874 37.0762C34.3898 37.1095 33.826 36.8804 33.4125 36.4649L28.4157 31.4675C28.0609 31.1128 27.768 31.1128 27.4132 31.4675L14.7947 44.0835C14.3868 44.4935 13.8511 44.6974 13.3148 44.6974Z" fill="#FF972F"/>
</g>
<defs>
<clipPath id="clip0">
<rect width="67" height="67" fill="white"/>
</clipPath>
</defs>
</svg>
