<svg width="35" height="35" viewBox="0 0 35 35" fill="none" xmlns="http://www.w3.org/2000/svg">
<g clip-path="url(#clip0)">
<path d="M32.3939 13.8099L33.6633 11.3044L32.6371 10.7818C29.7401 9.30671 26.374 9.2023 23.4305 10.4141C23.7061 7.20813 22.5683 4.00084 20.2406 1.67341L19.4566 0.888611L17.4359 2.90121L15.4455 0.918785L14.6316 1.73349C12.3293 4.03582 11.1893 7.2092 11.4355 10.3866C8.46777 9.13181 5.06234 9.22447 2.12582 10.7241L1.13861 11.2285L2.4305 13.7704L-0.0683594 15.0529L0.455552 16.0783C1.93409 18.9737 4.59771 21.0349 7.69151 21.7823C5.58599 24.2158 4.62361 27.4799 5.14112 30.731L5.31522 31.8258L8.13211 31.3836L8.57912 34.1565L9.7164 33.9757C12.9269 33.4649 15.7109 31.5689 17.3785 28.8581C19.0413 31.6127 21.8478 33.5372 25.0997 34.0507L26.195 34.2238L26.6455 31.4079L29.421 31.8405L29.6002 30.703C30.1073 27.4917 29.1655 24.2582 27.1029 21.8339C30.2371 21.1043 32.9351 19.0306 34.4292 16.0965L34.9317 15.1087L32.3939 13.8099ZM24.8311 20.0696L21.9779 20.1446L24.2276 21.9012C26.5646 23.7263 27.8375 26.5736 27.6715 29.4941L24.9445 29.069L24.5023 31.8328C21.6612 31.0747 19.3511 28.9646 18.3537 26.1517L17.4002 23.4617L16.4252 26.1442C15.4124 28.9312 13.0981 31.0226 10.2697 31.7676L9.83042 29.0426L7.0656 29.4768C6.90778 26.5405 8.2002 23.691 10.5666 21.8728L12.83 20.134L9.97755 20.0365C7.01379 19.9353 4.30959 18.3812 2.72637 15.9216L5.1817 14.6612L3.91385 12.1663C6.66185 11.1062 9.77514 11.4568 12.238 13.1514L14.5953 14.7733L13.8033 12.0237C12.9808 9.16919 13.6249 6.11331 15.4802 3.84543L17.4359 5.79314L19.4189 3.81819C21.2708 6.10209 21.8977 9.16759 21.0502 12.0288L20.2392 14.7653L22.6054 13.1693C25.0639 11.5108 28.1655 11.1813 30.891 12.2422L29.6437 14.7042L32.1348 15.9792C30.5353 18.4469 27.8143 19.9911 24.8311 20.0696Z"/>
<path d="M20.9116 16.606C20.3567 15.7334 19.484 15.0818 18.4565 14.818V10.0673H16.4076V14.818C15.3865 15.0802 14.5181 15.7253 13.9629 16.59L9.44747 15.1045L8.80713 17.0509L13.3213 18.5361C13.3154 18.6269 13.3111 18.7179 13.3111 18.8101C13.3111 19.8026 13.6641 20.7145 14.2508 21.4267L11.4464 25.2642L13.1007 26.4733L15.9048 22.6363C16.3774 22.8257 16.8925 22.9309 17.4322 22.9309C17.9649 22.9309 18.4739 22.8283 18.9417 22.6433L21.7279 26.4933L23.3877 25.2919L20.6008 21.4411C21.1949 20.7268 21.553 19.8096 21.553 18.8101C21.553 18.7244 21.5495 18.6394 21.5442 18.5551L26.065 17.0909L25.4337 15.1414L20.9116 16.606ZM15.3603 18.8101C15.3603 17.6675 16.2898 16.7382 17.4322 16.7382C18.5745 16.7382 19.5041 17.6675 19.5041 18.8101C19.5041 19.9524 18.5745 20.8819 17.4322 20.8819C16.2898 20.8819 15.3603 19.9524 15.3603 18.8101Z" />
</g>
<defs>
<clipPath id="clip0">
<rect width="35" height="35" fill="white"/>
</clipPath>
</defs>
</svg>
