<svg width="35" height="35" viewBox="0 0 35 35" fill="none" xmlns="http://www.w3.org/2000/svg">
<path d="M32.2689 19.1748C31.7787 19.4812 31.4245 19.7026 30.6247 19.7026C29.8249 19.7026 29.4708 19.4812 28.9805 19.1748C28.5919 18.9319 28.1403 18.6513 27.4922 18.4838C27.2137 13.2133 22.8383 9.01086 17.4997 9.01086C12.161 9.01086 7.78559 13.2132 7.50716 18.4837C6.85904 18.6512 6.40739 18.9319 6.01877 19.1748C5.52863 19.4811 5.17439 19.7026 4.37479 19.7026C3.5752 19.7026 3.22103 19.4812 2.73089 19.1748C2.13254 18.8008 1.38783 18.3354 0 18.3354V20.3862C0.7996 20.3862 1.15377 20.6075 1.64391 20.9139C2.24226 21.2879 2.98696 21.7533 4.37479 21.7533C5.76263 21.7533 6.50733 21.2879 7.10575 20.9139C7.59589 20.6076 7.95013 20.3862 8.74973 20.3862C9.54933 20.3862 9.90356 20.6075 10.3937 20.9139C10.9921 21.2879 11.7368 21.7533 13.1247 21.7533C14.5124 21.7533 15.2571 21.2879 15.8555 20.9139C16.3456 20.6076 16.6998 20.3862 17.4994 20.3862C18.2991 20.3862 18.6532 20.6075 19.1434 20.9139C19.7418 21.2879 20.4866 21.7533 21.8744 21.7533C23.2622 21.7533 24.007 21.2879 24.6053 20.9139C25.0955 20.6075 25.4498 20.3862 26.2495 20.3862C27.0492 20.3862 27.4034 20.6075 27.8936 20.9139C28.4921 21.2879 29.2368 21.7533 30.6247 21.7533C32.0126 21.7533 32.7573 21.2879 33.3558 20.9139C33.846 20.6075 34.2003 20.3862 35 20.3862V18.3354C33.6121 18.3354 32.8674 18.8008 32.2689 19.1748ZM23.5185 19.1748C23.0283 19.4812 22.6741 19.7026 21.8744 19.7026C21.0747 19.7026 20.7205 19.4812 20.2304 19.1748C19.632 18.8008 18.8873 18.3354 17.4995 18.3354C16.1117 18.3354 15.367 18.8008 14.7686 19.1748C14.2785 19.4811 13.9243 19.7026 13.1247 19.7026C12.3251 19.7026 11.9709 19.4812 11.4808 19.1748C11.0126 18.8822 10.4532 18.5346 9.56785 18.3967C9.88572 14.2988 13.3218 11.0616 17.4998 11.0616C21.6778 11.0616 25.1139 14.2988 25.4317 18.3966C24.5461 18.5345 23.9867 18.8822 23.5185 19.1748Z" />
<path d="M30.6247 24.5928C29.8249 24.5928 29.4708 24.3715 28.9805 24.0651C28.3821 23.6911 27.6373 23.2256 26.2494 23.2256C24.8616 23.2256 24.1168 23.6911 23.5184 24.0651C23.0282 24.3715 22.674 24.5928 21.8743 24.5928C21.0746 24.5928 20.7205 24.3715 20.2303 24.0651C19.6319 23.6911 18.8872 23.2256 17.4994 23.2256C16.1116 23.2256 15.3669 23.6911 14.7686 24.0651C14.2784 24.3714 13.9243 24.5928 13.1247 24.5928C12.325 24.5928 11.9708 24.3715 11.4807 24.0651C10.8823 23.6911 10.1376 23.2256 8.74973 23.2256C7.36189 23.2256 6.61719 23.6911 6.01877 24.0651C5.52863 24.3714 5.17439 24.5928 4.37479 24.5928C3.5752 24.5928 3.22103 24.3715 2.73089 24.0651C2.13254 23.6911 1.38783 23.2256 0 23.2256V25.2764C0.7996 25.2764 1.15377 25.4978 1.64391 25.8042C2.24226 26.1782 2.98696 26.6436 4.37479 26.6436C5.76263 26.6436 6.50733 26.1782 7.10575 25.8042C7.59589 25.4978 7.95013 25.2764 8.74973 25.2764C9.54933 25.2764 9.90356 25.4978 10.3937 25.8042C10.9921 26.1782 11.7368 26.6436 13.1247 26.6436C14.5124 26.6436 15.2571 26.1782 15.8555 25.8042C16.3456 25.4978 16.6998 25.2764 17.4994 25.2764C18.2991 25.2764 18.6532 25.4978 19.1434 25.8042C19.7418 26.1782 20.4866 26.6436 21.8744 26.6436C23.2622 26.6436 24.007 26.1782 24.6053 25.8042C25.0955 25.4978 25.4498 25.2764 26.2495 25.2764C27.0492 25.2764 27.4034 25.4978 27.8936 25.8042C28.4921 26.1782 29.2368 26.6436 30.6247 26.6436C32.0126 26.6436 32.7573 26.1782 33.3558 25.8042C33.846 25.4978 34.2003 25.2764 35 25.2764V23.2256C33.6121 23.2256 32.8674 23.6911 32.2689 24.0651C31.7787 24.3715 31.4245 24.5928 30.6247 24.5928Z" />
<path d="M21.8741 29.4832C21.0744 29.4832 20.7203 29.2618 20.2301 28.9554C19.6317 28.5814 18.887 28.116 17.4992 28.116C16.1114 28.116 15.3667 28.5814 14.7684 28.9554C14.2782 29.2617 13.924 29.4832 13.1244 29.4832C12.3248 29.4832 11.9706 29.2618 11.4805 28.9554C10.8821 28.5814 10.1373 28.116 8.74951 28.116V30.1667C9.54918 30.1667 9.90335 30.3881 10.3935 30.6945C10.9919 31.0685 11.7366 31.5339 13.1244 31.5339C14.5122 31.5339 15.2569 31.0685 15.8553 30.6945C16.3454 30.3882 16.6996 30.1667 17.4992 30.1667C18.2988 30.1667 18.653 30.3881 19.1432 30.6945C19.7416 31.0685 20.4863 31.5339 21.8742 31.5339C23.262 31.5339 24.0068 31.0685 24.6051 30.6945C25.0953 30.3881 25.4496 30.1667 26.2492 30.1667V28.116C24.8614 28.116 24.1166 28.5814 23.5183 28.9554C23.0279 29.2618 22.6738 29.4832 21.8741 29.4832Z" />
<path d="M16.4854 3.466H18.5361V7.14298H16.4854V3.466Z" />
<path d="M9.83887 5.44525L11.6866 4.55521L13.2824 7.86817L11.4347 8.75821L9.83887 5.44525Z" />
<path d="M4.71289 10.1182L5.99258 8.51451L8.86798 10.809L7.58829 12.4127L4.71289 10.1182Z" />
<path d="M2.11475 16.5531L2.57207 14.5536L6.15706 15.3735L5.69974 17.3731L2.11475 16.5531Z" />
<path d="M28.8604 15.3734L32.4454 14.5534L32.9027 16.5529L29.3177 17.3729L28.8604 15.3734Z" />
<path d="M26.1606 10.809L29.0361 8.51453L30.3157 10.1182L27.4403 12.4127L26.1606 10.809Z" />
<path d="M21.7407 7.87872L23.3365 4.56576L25.1843 5.4558L23.5885 8.76876L21.7407 7.87872Z" />
</svg>
