<svg width="35" height="35" viewBox="0 0 35 35" fill="none" xmlns="http://www.w3.org/2000/svg">
<g clip-path="url(#clip0)">
<path d="M29.6598 23.2617L27.4308 21.9747L30.1097 21.2569C30.6931 21.1005 31.0394 20.5008 30.883 19.9173C30.7266 19.3339 30.1276 18.9876 29.5434 19.144L24.7517 20.4279L22.196 18.9523C22.4881 18.008 22.4907 16.9801 22.1866 16.0186L24.7513 14.5379C29.9286 15.9251 29.622 15.8595 29.8272 15.8595C30.3101 15.8595 30.752 15.5372 30.883 15.0486C31.0393 14.465 30.6931 13.8653 30.1097 13.709L27.4305 12.9911L29.6598 11.7041C30.002 11.9011 30.3838 11.998 30.7576 11.998C32.4222 11.998 33.4928 10.1783 32.6485 8.71581C32.0441 7.66882 30.7077 7.31062 29.6603 7.91519C28.9607 8.31912 28.5692 9.05378 28.5677 9.80881L26.3373 11.0965L27.055 8.41811C27.2114 7.83459 26.8651 7.23488 26.2816 7.07854C25.6983 6.92213 25.0984 7.26844 24.942 7.85189L23.6582 12.6432L21.0781 14.1328C20.4188 13.4314 19.5572 12.9233 18.5869 12.7022V9.68173L22.0947 6.17394C22.5219 5.74683 22.5219 5.05428 22.0947 4.62717C21.6676 4.19999 20.9751 4.19999 20.548 4.62717L18.5869 6.58819V4.08077C19.24 3.70193 19.6806 2.9955 19.6806 2.18756C19.6806 0.98136 18.6993 6.10352e-05 17.4931 6.10352e-05C16.2869 6.10352e-05 15.3056 0.98136 15.3056 2.18756C15.3056 2.99543 15.7462 3.70193 16.3994 4.08077V6.58806L14.4383 4.6271C14.0112 4.19992 13.3186 4.19992 12.8915 4.6271C12.4643 5.05421 12.4643 5.74676 12.8915 6.17387L16.3992 9.68159V12.7022C15.4186 12.9257 14.5487 13.442 13.8868 14.1551L11.2691 12.6437L9.98506 7.85189C9.82873 7.26844 9.22915 6.92213 8.64543 7.07854C8.06198 7.23488 7.71567 7.83466 7.87208 8.41811L8.58985 11.0968L6.41841 9.84306C6.41547 8.41325 5.06599 7.3556 3.66579 7.73089C1.78789 8.23408 1.46188 10.7704 3.13819 11.7383C3.84379 12.1457 4.67272 12.1144 5.32624 11.7385L7.49617 12.9913L4.81737 13.7091C4.23385 13.8655 3.88754 14.4652 4.04395 15.0487C4.1996 15.6293 4.7972 15.9792 5.38352 15.822L10.1752 14.5381L12.79 16.0478C12.5066 16.9637 12.4926 17.9679 12.7816 18.9231L10.1752 20.4279L5.38345 19.144C4.80035 18.9874 4.20029 19.3339 4.04388 19.9173C3.88754 20.5008 4.23378 21.1005 4.8173 21.2569L7.4961 21.9747L5.3261 23.2275C4.66903 22.8495 3.84044 22.8223 3.13805 23.2277C1.46085 24.1961 1.78857 26.7321 3.66572 27.235C5.05916 27.6084 6.41541 26.5572 6.41834 25.1228L8.58978 23.8691L7.87201 26.5478C7.71567 27.1313 8.06191 27.7311 8.64536 27.8874C9.2314 28.0445 9.82927 27.6949 9.985 27.1141L11.269 22.3223L13.8658 20.823C14.5302 21.5475 15.4084 22.0721 16.3992 22.2979V25.2502L12.8914 28.758C12.4643 29.1851 12.4643 29.8776 12.8914 30.3047C13.3185 30.7319 14.0111 30.7319 14.4382 30.3047L16.3992 28.3438V30.9193C15.746 31.2982 15.3054 32.0046 15.3054 32.8126C15.3054 34.0188 16.2867 35.0001 17.4929 35.0001C18.6991 35.0001 19.6804 34.0188 19.6804 32.8126C19.6804 32.0047 19.2398 31.2982 18.5867 30.9193V28.3437L20.5478 30.3047C20.7613 30.5183 21.0412 30.6251 21.3211 30.6251C22.2867 30.6251 22.7856 29.449 22.0944 28.758L18.5867 25.2502V22.298C19.5673 22.0745 20.4372 21.5581 21.0991 20.8451L23.6579 22.3225L24.9418 27.1142C25.0728 27.6028 25.5147 27.9251 25.9976 27.9251C26.7168 27.9251 27.2409 27.2424 27.0548 26.548L26.337 23.8694L28.5675 25.1572C28.57 26.3868 29.5698 27.3449 30.7503 27.3449C31.4985 27.3449 32.2379 26.9613 32.6484 26.2502C33.7546 24.3341 31.6069 22.1415 29.6598 23.2617ZM17.493 20.2344C15.9852 20.2344 14.7586 19.0077 14.7586 17.5C14.7586 15.9923 15.9852 14.7656 17.493 14.7656C19.0007 14.7656 20.2273 15.9923 20.2273 17.5C20.2273 19.0077 19.0007 20.2344 17.493 20.2344Z" />
</g>
<defs>
<clipPath id="clip0">
<rect width="35" height="35" fill="white"/>
</clipPath>
</defs>
</svg>
