<svg width="28" height="28" viewBox="0 0 28 28" fill="none" xmlns="http://www.w3.org/2000/svg">
<path d="M13.9994 4.60028C15.2697 4.60028 16.2995 3.57047 16.2995 2.30014C16.2995 1.02981 15.2697 0 13.9994 0C12.729 0 11.6992 1.02981 11.6992 2.30014C11.6992 3.57047 12.729 4.60028 13.9994 4.60028Z" fill="#FF972F"/>
<path d="M21.0967 14.7445C20.4481 7.45682 16.9751 6.00316 16.9751 6.00316C16.9751 6.00316 13.6185 3.98536 10.0851 6.55524C7.79444 8.64021 7.26545 11.823 6.90335 14.8972C6.7202 16.4595 9.16361 16.4406 9.34518 14.8972C9.5614 13.0626 9.86997 11.2195 10.7805 9.6499L10.7763 11.4211L10.7595 19.9326V26.685C10.7595 27.4108 11.2916 28.0001 12.0389 28.0001C12.7857 28.0001 13.3918 27.4108 13.3918 26.685V17.0331H14.5873C14.5873 19.2944 14.5873 24.4557 14.5873 26.716C14.5873 28.2903 17.0286 28.2903 17.0286 26.716C17.0286 24.4547 17.0286 22.1928 17.0286 19.9321L17.132 11.4037C17.133 10.5898 17.1341 9.86244 17.1341 9.35655C18.1097 10.955 18.4319 12.8537 18.6539 14.7435C18.837 16.2879 21.2799 16.3068 21.0967 14.7445Z" fill="#FF972F"/>
</svg>
