<svg width="17" height="23" viewBox="0 0 17 23" fill="none" xmlns="http://www.w3.org/2000/svg">
<path d="M8.50737 23C4.09415 23 0.503906 19.3898 0.503906 14.9521C0.503906 13.0182 1.16264 11.7034 1.92561 10.1809C2.34904 9.3355 2.78703 8.46146 3.1915 7.34613L3.61229 6.18571C4.23277 6.33767 4.02255 6.28625 4.64286 6.43822L4.47967 7.66181C4.34613 8.66167 4.52863 9.79578 4.98013 10.7732C5.17157 11.1878 5.40267 11.5558 5.65922 11.8617C5.57025 10.2382 5.7366 8.67326 6.15669 7.19259C6.59714 5.6405 7.30378 4.2095 8.25714 2.93905C9.44371 1.35818 10.8065 0.325684 11.4383 0.240753L13.2293 0L12.0241 1.3466C11.4766 1.95814 11.1751 2.7476 11.1751 3.56953C11.1751 5.15829 12.1497 6.28573 13.278 7.59127C14.0015 8.42812 14.8214 9.37674 15.4424 10.5421C16.1613 11.8911 16.5107 13.3335 16.5107 14.9521C16.5107 19.3898 12.9204 23 8.50737 23Z" fill="#FF972F"/>
</svg>
