<svg width="41" height="41" viewBox="0 0 41 41" fill="none" xmlns="http://www.w3.org/2000/svg">
<path d="M37.2256 6H3.7744C1.66538 6 0 7.71287 0 9.7744V31.6464C0 33.7553 1.71287 35.4207 3.7744 35.4207H37.2256C39.3346 35.4207 41 33.7078 41 31.6463V9.7744C41 7.6653 39.2871 6 37.2256 6ZM38.5977 31.6463C38.5977 32.4035 37.9844 33.0184 37.2256 33.0184H3.7744C3.01718 33.0184 2.40234 32.4051 2.40234 31.6463V9.7744C2.40234 9.01718 3.01558 8.40234 3.7744 8.40234H37.2256C37.9828 8.40234 38.5977 9.01558 38.5977 9.7744V31.6463Z" fill="white"/>
<path d="M16.0748 23.6495C16.7728 22.868 17.1981 21.8381 17.1981 20.7104C17.1981 18.2745 15.2163 16.2927 12.7804 16.2927C10.3445 16.2927 8.36282 18.2745 8.36282 20.7104C8.36282 21.8381 8.78812 22.868 9.486 23.6494C7.65677 24.7646 6.43286 26.7786 6.43286 29.0732C6.43286 29.7366 6.97067 30.2744 7.63403 30.2744H17.9267C18.5901 30.2744 19.1279 29.7366 19.1279 29.0732C19.1279 26.7786 17.904 24.7647 16.0748 23.6495ZM12.7804 18.6951C13.8917 18.6951 14.7957 19.5991 14.7957 20.7104C14.7957 21.8216 13.8917 22.7257 12.7804 22.7257C11.6692 22.7257 10.7652 21.8216 10.7652 20.7104C10.7652 19.5991 11.6692 18.6951 12.7804 18.6951ZM9.02211 27.8721C9.5314 26.2822 11.0237 25.1281 12.7804 25.1281C14.5372 25.1281 16.0293 26.2821 16.5387 27.8721H9.02211Z" fill="white"/>
<path d="M33.3659 17.5793H24.3597C23.6964 17.5793 23.1586 18.1172 23.1586 18.7805C23.1586 19.4439 23.6964 19.9817 24.3597 19.9817H33.3659C34.0293 19.9817 34.5671 19.4439 34.5671 18.7805C34.5671 18.1172 34.0293 17.5793 33.3659 17.5793Z" fill="white"/>
<path d="M33.3659 11.1462H7.63403C6.97067 11.1462 6.43286 11.684 6.43286 12.3474C6.43286 13.0108 6.97067 13.5486 7.63403 13.5486H33.3659C34.0292 13.5486 34.567 13.0108 34.567 12.3474C34.567 11.684 34.0292 11.1462 33.3659 11.1462Z" fill="white"/>
<path d="M33.3659 22.7257H24.3597C23.6964 22.7257 23.1586 23.2635 23.1586 23.9269C23.1586 24.5902 23.6964 25.1281 24.3597 25.1281H33.3659C34.0293 25.1281 34.5671 24.5902 34.5671 23.9269C34.5671 23.2635 34.0293 22.7257 33.3659 22.7257Z" fill="white"/>
<path d="M30.7927 27.8721H24.3597C23.6964 27.8721 23.1586 28.4099 23.1586 29.0732C23.1586 29.7366 23.6964 30.2744 24.3597 30.2744H30.7927C31.456 30.2744 31.9938 29.7366 31.9938 29.0732C31.9938 28.4099 31.456 27.8721 30.7927 27.8721Z" fill="white"/>
</svg>
