<svg width="297" height="29" viewBox="0 0 297 29" fill="none" xmlns="http://www.w3.org/2000/svg">
<path d="M9.69271 27.9735H4.54964L0 1.30868H5.38044L6.68599 11.9509C6.79149 12.8476 6.89699 13.8103 7.00249 14.8389C7.10799 15.8412 7.21348 16.9885 7.31898 18.2808C7.42448 19.5468 7.51679 20.549 7.59592 21.2875H7.7146C7.84648 20.0743 8.3476 16.9489 9.21796 11.9113L11.1169 1.30868H15.3105L17.0908 11.8322C17.7238 15.8675 18.1458 19.0193 18.3568 21.2875H18.4359C18.726 18.3599 19.0689 15.2213 19.4645 11.8718L20.7701 1.30868H25.834L21.1261 27.9735H15.7853L14.2028 19.2303C13.8072 16.9885 13.4115 14.074 13.0159 10.4871H12.9368C12.3302 14.6543 11.8422 17.5819 11.473 19.2699L9.69271 27.9735Z" fill="#666666"/>
<path d="M9.69271 27.9735H4.54964L0 1.30868H5.38044L6.68599 11.9509C6.79149 12.8476 6.89699 13.8103 7.00249 14.8389C7.10799 15.8412 7.21348 16.9885 7.31898 18.2808C7.42448 19.5468 7.51679 20.549 7.59592 21.2875H7.7146C7.84648 20.0743 8.3476 16.9489 9.21796 11.9113L11.1169 1.30868H15.3105L17.0908 11.8322C17.7238 15.8675 18.1458 19.0193 18.3568 21.2875H18.4359C18.726 18.3599 19.0689 15.2213 19.4645 11.8718L20.7701 1.30868H25.834L21.1261 27.9735H15.7853L14.2028 19.2303C13.8072 16.9885 13.4115 14.074 13.0159 10.4871H12.9368C12.3302 14.6543 11.8422 17.5819 11.473 19.2699L9.69271 27.9735Z" fill="url(#paint0_linear)"/>
<path d="M35.7922 28.29H35.7527C33.8273 28.29 32.2053 27.6438 30.8865 26.3515C29.5942 25.0327 28.6711 23.3843 28.1172 21.4062C27.5897 19.4017 27.326 17.1203 27.326 14.562C27.326 10.6849 28.0908 7.45399 29.6206 4.86927C31.1503 2.28455 33.3262 0.992188 36.1483 0.992188C37.678 0.992188 38.9968 1.38781 40.1045 2.17905C41.2386 2.94392 42.0958 3.99891 42.676 5.34402C43.2827 6.66275 43.7178 8.06061 43.9816 9.53759C44.2453 10.9882 44.3772 12.5311 44.3772 14.1664C44.3772 18.9929 43.6123 22.5535 42.0826 24.8481C40.5529 27.1427 38.4561 28.29 35.7922 28.29ZM35.9109 23.7799H35.9505C37.9813 23.7799 38.9968 20.6545 38.9968 14.4037C38.9968 8.46942 37.9682 5.50226 35.9109 5.50226C34.8296 5.50226 34.0119 6.35944 33.4581 8.0738C32.9306 9.76178 32.68 11.9113 32.7064 14.5224C32.6536 17.3181 32.891 19.56 33.4185 21.248C33.9724 22.936 34.8032 23.7799 35.9109 23.7799Z" fill="#666666"/>
<path d="M35.7922 28.29H35.7527C33.8273 28.29 32.2053 27.6438 30.8865 26.3515C29.5942 25.0327 28.6711 23.3843 28.1172 21.4062C27.5897 19.4017 27.326 17.1203 27.326 14.562C27.326 10.6849 28.0908 7.45399 29.6206 4.86927C31.1503 2.28455 33.3262 0.992188 36.1483 0.992188C37.678 0.992188 38.9968 1.38781 40.1045 2.17905C41.2386 2.94392 42.0958 3.99891 42.676 5.34402C43.2827 6.66275 43.7178 8.06061 43.9816 9.53759C44.2453 10.9882 44.3772 12.5311 44.3772 14.1664C44.3772 18.9929 43.6123 22.5535 42.0826 24.8481C40.5529 27.1427 38.4561 28.29 35.7922 28.29ZM35.9109 23.7799H35.9505C37.9813 23.7799 38.9968 20.6545 38.9968 14.4037C38.9968 8.46942 37.9682 5.50226 35.9109 5.50226C34.8296 5.50226 34.0119 6.35944 33.4581 8.0738C32.9306 9.76178 32.68 11.9113 32.7064 14.5224C32.6536 17.3181 32.891 19.56 33.4185 21.248C33.9724 22.936 34.8032 23.7799 35.9109 23.7799Z" fill="url(#paint1_linear)"/>
<path d="M47.6785 27.9735V1.7043C49.4456 1.36143 51.3314 1.19 53.3358 1.19C56.6591 1.19 59.0328 1.84937 60.457 3.1681C61.8813 4.46046 62.5934 6.30669 62.5934 8.70679C62.5934 10.1574 62.2373 11.4761 61.5252 12.663C60.8131 13.8499 59.7977 14.7466 58.4789 15.3532V15.4323C60.1405 16.1181 61.2219 17.8852 61.723 20.7337C62.3824 24.5844 62.9494 26.9977 63.4242 27.9735H58.0042C57.5558 27.024 57.1074 24.8877 56.6591 21.5645C56.4217 19.9556 56.0788 18.8479 55.6304 18.2413C55.1821 17.6346 54.5227 17.3313 53.6523 17.3313H52.8611V27.9735H47.6785ZM52.8611 5.38358V13.3356H53.8106C54.9183 13.3356 55.7755 12.9531 56.3821 12.1883C57.0151 11.397 57.3316 10.3948 57.3316 9.18154C57.3316 6.62319 56.2634 5.30445 54.1271 5.22533C53.5205 5.22533 53.0985 5.27808 52.8611 5.38358Z" fill="#666666"/>
<path d="M47.6785 27.9735V1.7043C49.4456 1.36143 51.3314 1.19 53.3358 1.19C56.6591 1.19 59.0328 1.84937 60.457 3.1681C61.8813 4.46046 62.5934 6.30669 62.5934 8.70679C62.5934 10.1574 62.2373 11.4761 61.5252 12.663C60.8131 13.8499 59.7977 14.7466 58.4789 15.3532V15.4323C60.1405 16.1181 61.2219 17.8852 61.723 20.7337C62.3824 24.5844 62.9494 26.9977 63.4242 27.9735H58.0042C57.5558 27.024 57.1074 24.8877 56.6591 21.5645C56.4217 19.9556 56.0788 18.8479 55.6304 18.2413C55.1821 17.6346 54.5227 17.3313 53.6523 17.3313H52.8611V27.9735H47.6785ZM52.8611 5.38358V13.3356H53.8106C54.9183 13.3356 55.7755 12.9531 56.3821 12.1883C57.0151 11.397 57.3316 10.3948 57.3316 9.18154C57.3316 6.62319 56.2634 5.30445 54.1271 5.22533C53.5205 5.22533 53.0985 5.27808 52.8611 5.38358Z" fill="url(#paint2_linear)"/>
<path d="M66.2618 27.9735V1.30868H71.4445V23.5821H78.2491V27.9735H66.2618Z" fill="#666666"/>
<path d="M66.2618 27.9735V1.30868H71.4445V23.5821H78.2491V27.9735H66.2618Z" fill="url(#paint3_linear)"/>
<path d="M81.2908 27.8944V1.7043C82.715 1.36143 84.4689 1.19 86.5525 1.19C89.7966 1.19 92.2627 1.98124 93.9506 3.56372C96.2716 5.64732 97.4321 9.23429 97.4321 14.3246C97.4321 19.6523 96.1925 23.4107 93.7133 25.5998C91.867 27.3142 89.1636 28.1713 85.6031 28.1713C84.3371 28.1713 82.8996 28.079 81.2908 27.8944ZM86.4734 5.4627V23.8591C86.658 23.9118 86.9613 23.9382 87.3833 23.9382C88.7548 23.9382 89.8757 23.1601 90.7461 21.604C91.6165 20.0479 92.0517 17.5555 92.0517 14.1268C92.0517 8.27161 90.5351 5.34402 87.502 5.34402C87.0273 5.34402 86.6844 5.38358 86.4734 5.4627Z" fill="#666666"/>
<path d="M81.2908 27.8944V1.7043C82.715 1.36143 84.4689 1.19 86.5525 1.19C89.7966 1.19 92.2627 1.98124 93.9506 3.56372C96.2716 5.64732 97.4321 9.23429 97.4321 14.3246C97.4321 19.6523 96.1925 23.4107 93.7133 25.5998C91.867 27.3142 89.1636 28.1713 85.6031 28.1713C84.3371 28.1713 82.8996 28.079 81.2908 27.8944ZM86.4734 5.4627V23.8591C86.658 23.9118 86.9613 23.9382 87.3833 23.9382C88.7548 23.9382 89.8757 23.1601 90.7461 21.604C91.6165 20.0479 92.0517 17.5555 92.0517 14.1268C92.0517 8.27161 90.5351 5.34402 87.502 5.34402C87.0273 5.34402 86.6844 5.38358 86.4734 5.4627Z" fill="url(#paint4_linear)"/>
<path d="M109.485 27.9735V6.0957H104.777V1.30868H119.415V6.0957H114.667V27.9735H109.485Z" fill="#666666"/>
<path d="M109.485 27.9735V6.0957H104.777V1.30868H119.415V6.0957H114.667V27.9735H109.485Z" fill="url(#paint5_linear)"/>
<path d="M122.128 27.9735V1.7043C123.895 1.36143 125.781 1.19 127.785 1.19C131.108 1.19 133.482 1.84937 134.906 3.1681C136.331 4.46046 137.043 6.30669 137.043 8.70679C137.043 10.1574 136.687 11.4761 135.975 12.663C135.262 13.8499 134.247 14.7466 132.928 15.3532V15.4323C134.59 16.1181 135.671 17.8852 136.172 20.7337C136.832 24.5844 137.399 26.9977 137.873 27.9735H132.454C132.005 27.024 131.557 24.8877 131.108 21.5645C130.871 19.9556 130.528 18.8479 130.08 18.2413C129.631 17.6346 128.972 17.3313 128.102 17.3313H127.31V27.9735H122.128ZM127.31 5.38358V13.3356H128.26C129.368 13.3356 130.225 12.9531 130.831 12.1883C131.464 11.397 131.781 10.3948 131.781 9.18154C131.781 6.62319 130.713 5.30445 128.576 5.22533C127.97 5.22533 127.548 5.27808 127.31 5.38358Z" fill="#666666"/>
<path d="M122.128 27.9735V1.7043C123.895 1.36143 125.781 1.19 127.785 1.19C131.108 1.19 133.482 1.84937 134.906 3.1681C136.331 4.46046 137.043 6.30669 137.043 8.70679C137.043 10.1574 136.687 11.4761 135.975 12.663C135.262 13.8499 134.247 14.7466 132.928 15.3532V15.4323C134.59 16.1181 135.671 17.8852 136.172 20.7337C136.832 24.5844 137.399 26.9977 137.873 27.9735H132.454C132.005 27.024 131.557 24.8877 131.108 21.5645C130.871 19.9556 130.528 18.8479 130.08 18.2413C129.631 17.6346 128.972 17.3313 128.102 17.3313H127.31V27.9735H122.128ZM127.31 5.38358V13.3356H128.26C129.368 13.3356 130.225 12.9531 130.831 12.1883C131.464 11.397 131.781 10.3948 131.781 9.18154C131.781 6.62319 130.713 5.30445 128.576 5.22533C127.97 5.22533 127.548 5.27808 127.31 5.38358Z" fill="url(#paint6_linear)"/>
<path d="M149.731 21.881H144.944L143.757 27.9735H138.733L144.509 1.30868H150.72L155.903 27.9735H150.839L149.731 21.881ZM145.459 17.8456H149.257L148.386 12.2674C148.228 11.397 147.938 9.37935 147.516 6.21438H147.397C146.817 10.0387 146.5 12.0564 146.448 12.2674L145.459 17.8456Z" fill="#666666"/>
<path d="M149.731 21.881H144.944L143.757 27.9735H138.733L144.509 1.30868H150.72L155.903 27.9735H150.839L149.731 21.881ZM145.459 17.8456H149.257L148.386 12.2674C148.228 11.397 147.938 9.37935 147.516 6.21438H147.397C146.817 10.0387 146.5 12.0564 146.448 12.2674L145.459 17.8456Z" fill="url(#paint7_linear)"/>
<path d="M167.515 27.9735H161.7L155.765 1.30868H161.502L163.401 12.8212C164.192 18.0962 164.641 21.182 164.746 22.0788H164.825C165.168 18.9402 165.59 15.8148 166.091 12.7026L167.911 1.30868H173.608L167.515 27.9735Z" fill="#666666"/>
<path d="M167.515 27.9735H161.7L155.765 1.30868H161.502L163.401 12.8212C164.192 18.0962 164.641 21.182 164.746 22.0788H164.825C165.168 18.9402 165.59 15.8148 166.091 12.7026L167.911 1.30868H173.608L167.515 27.9735Z" fill="url(#paint8_linear)"/>
<path d="M187.104 11.9509V16.2631H181.051V23.4634H187.896V27.9735H175.869V1.30868H187.461V5.81876H181.051V11.9509H187.104Z" fill="#666666"/>
<path d="M187.104 11.9509V16.2631H181.051V23.4634H187.896V27.9735H175.869V1.30868H187.461V5.81876H181.051V11.9509H187.104Z" fill="url(#paint9_linear)"/>
<path d="M191.439 27.9735V1.30868H196.621V23.5821H203.426V27.9735H191.439Z" fill="#666666"/>
<path d="M191.439 27.9735V1.30868H196.621V23.5821H203.426V27.9735H191.439Z" fill="url(#paint10_linear)"/>
<path d="M211.977 1.30868H217.159V18.6369C217.159 22.0392 218.003 23.7404 219.691 23.7404C220.509 23.7404 221.142 23.3711 221.59 22.6326C222.038 21.8678 222.263 20.5359 222.263 18.6369V1.30868H227.445V17.7269C227.445 21.1557 226.786 23.7799 225.467 25.5998C224.175 27.3933 222.263 28.29 219.731 28.29C217.014 28.29 215.036 27.4065 213.796 25.6394C212.583 23.8459 211.977 21.2216 211.977 17.7665V1.30868Z" fill="#666666"/>
<path d="M211.977 1.30868H217.159V18.6369C217.159 22.0392 218.003 23.7404 219.691 23.7404C220.509 23.7404 221.142 23.3711 221.59 22.6326C222.038 21.8678 222.263 20.5359 222.263 18.6369V1.30868H227.445V17.7269C227.445 21.1557 226.786 23.7799 225.467 25.5998C224.175 27.3933 222.263 28.29 219.731 28.29C217.014 28.29 215.036 27.4065 213.796 25.6394C212.583 23.8459 211.977 21.2216 211.977 17.7665V1.30868Z" fill="url(#paint11_linear)"/>
<path d="M236.465 27.9735H231.916V1.30868H236.663L240.778 11.7926C241.78 14.2455 242.729 16.8302 243.626 19.5468H243.705C243.362 13.5334 243.191 9.41891 243.191 7.20343V1.30868H247.741V27.9735H242.993L238.918 17.8061C237.784 15.0367 236.874 12.3729 236.188 9.81453H236.109C236.347 13.8499 236.465 17.8984 236.465 21.9601V27.9735Z" fill="#666666"/>
<path d="M236.465 27.9735H231.916V1.30868H236.663L240.778 11.7926C241.78 14.2455 242.729 16.8302 243.626 19.5468H243.705C243.362 13.5334 243.191 9.41891 243.191 7.20343V1.30868H247.741V27.9735H242.993L238.918 17.8061C237.784 15.0367 236.874 12.3729 236.188 9.81453H236.109C236.347 13.8499 236.465 17.8984 236.465 21.9601V27.9735Z" fill="url(#paint12_linear)"/>
<path d="M252.315 1.30868H257.498V27.9735H252.315V1.30868Z" fill="#666666"/>
<path d="M252.315 1.30868H257.498V27.9735H252.315V1.30868Z" fill="url(#paint13_linear)"/>
<path d="M269.289 28.29H269.249C267.324 28.29 265.702 27.6438 264.383 26.3515C263.091 25.0327 262.168 23.3843 261.614 21.4062C261.086 19.4017 260.823 17.1203 260.823 14.562C260.823 10.6849 261.588 7.45399 263.117 4.86927C264.647 2.28455 266.823 0.992188 269.645 0.992188C271.175 0.992188 272.493 1.38781 273.601 2.17905C274.735 2.94392 275.593 3.99891 276.173 5.34402C276.779 6.66275 277.215 8.06061 277.478 9.53759C277.742 10.9882 277.874 12.5311 277.874 14.1664C277.874 18.9929 277.109 22.5535 275.579 24.8481C274.05 27.1427 271.953 28.29 269.289 28.29ZM269.408 23.7799H269.447C271.478 23.7799 272.493 20.6545 272.493 14.4037C272.493 8.46942 271.465 5.50226 269.408 5.50226C268.326 5.50226 267.509 6.35944 266.955 8.0738C266.427 9.76178 266.177 11.9113 266.203 14.5224C266.15 17.3181 266.388 19.56 266.915 21.248C267.469 22.936 268.3 23.7799 269.408 23.7799Z" fill="#666666"/>
<path d="M269.289 28.29H269.249C267.324 28.29 265.702 27.6438 264.383 26.3515C263.091 25.0327 262.168 23.3843 261.614 21.4062C261.086 19.4017 260.823 17.1203 260.823 14.562C260.823 10.6849 261.588 7.45399 263.117 4.86927C264.647 2.28455 266.823 0.992188 269.645 0.992188C271.175 0.992188 272.493 1.38781 273.601 2.17905C274.735 2.94392 275.593 3.99891 276.173 5.34402C276.779 6.66275 277.215 8.06061 277.478 9.53759C277.742 10.9882 277.874 12.5311 277.874 14.1664C277.874 18.9929 277.109 22.5535 275.579 24.8481C274.05 27.1427 271.953 28.29 269.289 28.29ZM269.408 23.7799H269.447C271.478 23.7799 272.493 20.6545 272.493 14.4037C272.493 8.46942 271.465 5.50226 269.408 5.50226C268.326 5.50226 267.509 6.35944 266.955 8.0738C266.427 9.76178 266.177 11.9113 266.203 14.5224C266.15 17.3181 266.388 19.56 266.915 21.248C267.469 22.936 268.3 23.7799 269.408 23.7799Z" fill="url(#paint14_linear)"/>
<path d="M285.725 27.9735H281.175V1.30868H285.923L290.037 11.7926C291.039 14.2455 291.989 16.8302 292.886 19.5468H292.965C292.622 13.5334 292.45 9.41891 292.45 7.20343V1.30868H297V27.9735H292.253L288.178 17.8061C287.044 15.0367 286.134 12.3729 285.448 9.81453H285.369C285.606 13.8499 285.725 17.8984 285.725 21.9601V27.9735Z" fill="#666666"/>
<path d="M285.725 27.9735H281.175V1.30868H285.923L290.037 11.7926C291.039 14.2455 291.989 16.8302 292.886 19.5468H292.965C292.622 13.5334 292.45 9.41891 292.45 7.20343V1.30868H297V27.9735H292.253L288.178 17.8061C287.044 15.0367 286.134 12.3729 285.448 9.81453H285.369C285.606 13.8499 285.725 17.8984 285.725 21.9601V27.9735Z" fill="url(#paint15_linear)"/>
<defs>
<linearGradient id="paint0_linear" x1="6.64022" y1="17.2652" x2="197.861" y2="17.2652" gradientUnits="userSpaceOnUse">
<stop stop-color="#FF6F1B"/>
<stop offset="0.229167" stop-color="#E09900"/>
<stop offset="0.708333" stop-color="#5FC050"/>
<stop offset="0.942708" stop-color="#499EC5"/>
</linearGradient>
<linearGradient id="paint1_linear" x1="6.64022" y1="17.2652" x2="197.861" y2="17.2652" gradientUnits="userSpaceOnUse">
<stop stop-color="#FF6F1B"/>
<stop offset="0.229167" stop-color="#E09900"/>
<stop offset="0.708333" stop-color="#5FC050"/>
<stop offset="0.942708" stop-color="#499EC5"/>
</linearGradient>
<linearGradient id="paint2_linear" x1="6.64022" y1="17.2652" x2="197.861" y2="17.2652" gradientUnits="userSpaceOnUse">
<stop stop-color="#FF6F1B"/>
<stop offset="0.229167" stop-color="#E09900"/>
<stop offset="0.708333" stop-color="#5FC050"/>
<stop offset="0.942708" stop-color="#499EC5"/>
</linearGradient>
<linearGradient id="paint3_linear" x1="6.64022" y1="17.2652" x2="197.861" y2="17.2652" gradientUnits="userSpaceOnUse">
<stop stop-color="#FF6F1B"/>
<stop offset="0.229167" stop-color="#E09900"/>
<stop offset="0.708333" stop-color="#5FC050"/>
<stop offset="0.942708" stop-color="#499EC5"/>
</linearGradient>
<linearGradient id="paint4_linear" x1="6.64022" y1="17.2652" x2="197.861" y2="17.2652" gradientUnits="userSpaceOnUse">
<stop stop-color="#FF6F1B"/>
<stop offset="0.229167" stop-color="#E09900"/>
<stop offset="0.708333" stop-color="#5FC050"/>
<stop offset="0.942708" stop-color="#499EC5"/>
</linearGradient>
<linearGradient id="paint5_linear" x1="6.64022" y1="17.2652" x2="197.861" y2="17.2652" gradientUnits="userSpaceOnUse">
<stop stop-color="#FF6F1B"/>
<stop offset="0.229167" stop-color="#E09900"/>
<stop offset="0.708333" stop-color="#5FC050"/>
<stop offset="0.942708" stop-color="#499EC5"/>
</linearGradient>
<linearGradient id="paint6_linear" x1="6.64022" y1="17.2652" x2="197.861" y2="17.2652" gradientUnits="userSpaceOnUse">
<stop stop-color="#FF6F1B"/>
<stop offset="0.229167" stop-color="#E09900"/>
<stop offset="0.708333" stop-color="#5FC050"/>
<stop offset="0.942708" stop-color="#499EC5"/>
</linearGradient>
<linearGradient id="paint7_linear" x1="6.64022" y1="17.2652" x2="197.861" y2="17.2652" gradientUnits="userSpaceOnUse">
<stop stop-color="#FF6F1B"/>
<stop offset="0.229167" stop-color="#E09900"/>
<stop offset="0.708333" stop-color="#5FC050"/>
<stop offset="0.942708" stop-color="#499EC5"/>
</linearGradient>
<linearGradient id="paint8_linear" x1="6.64022" y1="17.2652" x2="197.861" y2="17.2652" gradientUnits="userSpaceOnUse">
<stop stop-color="#FF6F1B"/>
<stop offset="0.229167" stop-color="#E09900"/>
<stop offset="0.708333" stop-color="#5FC050"/>
<stop offset="0.942708" stop-color="#499EC5"/>
</linearGradient>
<linearGradient id="paint9_linear" x1="6.64022" y1="17.2652" x2="197.861" y2="17.2652" gradientUnits="userSpaceOnUse">
<stop stop-color="#FF6F1B"/>
<stop offset="0.229167" stop-color="#E09900"/>
<stop offset="0.708333" stop-color="#5FC050"/>
<stop offset="0.942708" stop-color="#499EC5"/>
</linearGradient>
<linearGradient id="paint10_linear" x1="6.64022" y1="17.2652" x2="197.861" y2="17.2652" gradientUnits="userSpaceOnUse">
<stop stop-color="#FF6F1B"/>
<stop offset="0.229167" stop-color="#E09900"/>
<stop offset="0.708333" stop-color="#5FC050"/>
<stop offset="0.942708" stop-color="#499EC5"/>
</linearGradient>
<linearGradient id="paint11_linear" x1="212.964" y1="17.2652" x2="296.455" y2="17.2652" gradientUnits="userSpaceOnUse">
<stop stop-color="#FF6F1B"/>
<stop offset="1" stop-color="#EA8600"/>
</linearGradient>
<linearGradient id="paint12_linear" x1="212.964" y1="17.2652" x2="296.455" y2="17.2652" gradientUnits="userSpaceOnUse">
<stop stop-color="#FF6F1B"/>
<stop offset="1" stop-color="#EA8600"/>
</linearGradient>
<linearGradient id="paint13_linear" x1="212.964" y1="17.2652" x2="296.455" y2="17.2652" gradientUnits="userSpaceOnUse">
<stop stop-color="#FF6F1B"/>
<stop offset="1" stop-color="#EA8600"/>
</linearGradient>
<linearGradient id="paint14_linear" x1="212.964" y1="17.2652" x2="296.455" y2="17.2652" gradientUnits="userSpaceOnUse">
<stop stop-color="#FF6F1B"/>
<stop offset="1" stop-color="#EA8600"/>
</linearGradient>
<linearGradient id="paint15_linear" x1="212.964" y1="17.2652" x2="296.455" y2="17.2652" gradientUnits="userSpaceOnUse">
<stop stop-color="#FF6F1B"/>
<stop offset="1" stop-color="#EA8600"/>
</linearGradient>
</defs>
</svg>
