<svg width="30" height="30" viewBox="0 0 30 30" fill="none" xmlns="http://www.w3.org/2000/svg">
<path d="M27.0968 1.4516H2.90323C1.30645 1.4516 0 2.75805 0 4.35482C0 5.9516 1.30645 7.25805 2.90323 7.25805H27.0968C28.6935 7.25805 30 5.9516 30 4.35482C30 2.75805 28.6935 1.4516 27.0968 1.4516Z" fill="#009EFD"/>
<path d="M27.0968 12.0968H2.90323C1.30645 12.0968 0 13.4032 0 15C0 16.5968 1.30645 17.9032 2.90323 17.9032H27.0968C28.6935 17.9032 30 16.5968 30 15C30 13.4032 28.6935 12.0968 27.0968 12.0968Z" fill="#009EFD"/>
<path d="M27.0968 22.7419H2.90323C1.30645 22.7419 0 24.0484 0 25.6451C0 27.2419 1.30645 28.5484 2.90323 28.5484H27.0968C28.6935 28.5484 30 27.2419 30 25.6451C30 24.0484 28.6935 22.7419 27.0968 22.7419Z" fill="#009EFD"/>
</svg>
