<svg width="22" height="22" viewBox="0 0 22 22" fill="none" xmlns="http://www.w3.org/2000/svg">
<g clip-path="url(#clip0)">
<path d="M19.9811 12.8908H5.31359L9.59931 10.4164C9.59935 10.4164 9.5994 10.4164 9.59948 10.4164C9.59953 10.4164 9.59953 10.4163 9.59957 10.4163L18.5301 5.26024C18.8384 5.08227 18.944 4.68809 18.766 4.37984L16.8324 1.03085C16.6546 0.722773 16.2603 0.61703 15.952 0.794959L12.8625 2.57868C12.8632 2.13061 12.7467 1.6883 12.5167 1.2899C11.8044 0.0560011 10.2292 -0.366285 8.99501 0.346248C8.16836 0.823489 7.67483 1.71301 7.7071 2.66762L7.77503 4.67829L6.06767 3.61415C6.0675 3.61402 6.06728 3.61394 6.06711 3.61385C5.25661 3.10898 4.23978 3.09171 3.41334 3.56886C2.18228 4.27964 1.75896 5.85947 2.46973 7.09054C2.69974 7.48893 3.02457 7.81098 3.41291 8.03441L0.323411 9.81812C0.0151183 9.9961 -0.0904962 10.3903 0.0875188 10.6985L2.02106 14.0475C2.20002 14.3575 2.59511 14.4604 2.90147 14.2834L3.86824 13.7253V21.3554C3.86824 21.7114 4.15681 21.9999 4.51276 21.9999H19.9811C20.3371 21.9999 20.6256 21.7114 20.6256 21.3554V13.5353C20.6256 13.1794 20.3371 12.8908 19.9811 12.8908ZM8.78366 6.42205C8.78507 6.42123 9.34043 6.10061 9.34043 6.10061L10.6295 8.33329L9.51316 8.97781L8.22413 6.74512L8.78366 6.42205ZM16.0384 2.23352L17.3274 4.4662L11.7458 7.68878L10.4567 5.45609L11.5725 4.81192C11.5727 4.81179 11.5729 4.8117 11.5731 4.81158C11.5733 4.8114 11.5736 4.81123 11.5739 4.8111L16.0384 2.23352ZM9.63953 1.46259C10.2564 1.10635 11.0441 1.31732 11.4003 1.93438C11.7565 2.55118 11.5457 3.33869 10.9287 3.6951L9.25415 4.66196C9.25411 4.66196 9.25407 4.662 9.25407 4.662C9.25407 4.662 9.25402 4.66205 9.25398 4.66205L9.06789 4.76947L8.9954 2.62405C8.97929 2.14633 9.22609 1.70128 9.63953 1.46259ZM5.34689 6.91781C4.72992 7.27392 3.9424 7.06312 3.58607 6.44602C3.23069 5.83047 3.44235 5.04055 4.05786 4.68516C4.47125 4.44648 4.97999 4.45529 5.3856 4.70798C5.38569 4.70802 5.38573 4.70807 5.38582 4.70811L7.20756 5.84357L5.34697 6.91776C5.34697 6.91776 5.34693 6.91781 5.34689 6.91781ZM2.81511 12.8449L1.52608 10.6122L7.10775 7.38964L8.39678 9.62232L2.81511 12.8449ZM12.8915 14.1799V20.7109H11.6024V14.1799H12.8915ZM5.15727 14.1799H10.3134V20.7109H5.15727V14.1799ZM19.3366 20.7109H14.1805V14.1799H19.3366V20.7109Z" fill="white"/>
<path d="M21.3553 6.44571H20.7107V5.80119C20.7107 5.44525 20.4222 5.15668 20.0662 5.15668C19.7103 5.15668 19.4217 5.44525 19.4217 5.80119V6.44571H18.7772C18.4213 6.44571 18.1327 6.73428 18.1327 7.09022C18.1327 7.44617 18.4213 7.73474 18.7772 7.73474H19.4217V8.37925C19.4217 8.7352 19.7103 9.02377 20.0662 9.02377C20.4222 9.02377 20.7107 8.7352 20.7107 8.37925V7.73474H21.3553C21.7112 7.73474 21.9998 7.44617 21.9998 7.09022C21.9998 6.73428 21.7112 6.44571 21.3553 6.44571Z" fill="white"/>
<path d="M16.1132 11.6018C16.4692 11.6018 16.7577 11.3133 16.7577 10.9573V10.3128H17.4022C17.7582 10.3128 18.0468 10.0242 18.0468 9.66829C18.0468 9.31234 17.7582 9.02377 17.4022 9.02377H16.7577V8.37926C16.7577 8.02331 16.4692 7.73474 16.1132 7.73474C15.7573 7.73474 15.4687 8.02331 15.4687 8.37926V9.02377H14.8242C14.4682 9.02377 14.1797 9.31234 14.1797 9.66829C14.1797 10.0242 14.4682 10.3128 14.8242 10.3128H15.4687V10.9573C15.4687 11.3133 15.7573 11.6018 16.1132 11.6018Z" fill="white"/>
</g>
<defs>
<clipPath id="clip0">
<rect width="22" height="22" fill="white"/>
</clipPath>
</defs>
</svg>
