<svg xmlns="http://www.w3.org/2000/svg" xmlns:xlink="http://www.w3.org/1999/xlink"><defs><clipPath id="clip0"><path fill="#fff" d="M0 0h41v41H0z"/></clipPath><clipPath id="clip0"><path fill="#fff" d="M0 0h35v35H0z"/></clipPath><clipPath id="clip0"><path fill="#fff" d="M0 0h28v28H0z"/></clipPath><clipPath id="clip0"><path fill="#fff" d="M0 0h40v40H0z"/></clipPath><clipPath id="clip0"><path fill="#fff" d="M0 0h22v22H0z"/></clipPath><linearGradient id="paint0_linear" x1="6.64" y1="17.265" x2="197.861" y2="17.265" gradientUnits="userSpaceOnUse"><stop stop-color="#FF6F1B"/><stop offset=".229" stop-color="#E09900"/><stop offset=".708" stop-color="#5FC050"/><stop offset=".943" stop-color="#499EC5"/></linearGradient><linearGradient id="paint1_linear" x1="6.64" y1="17.265" x2="197.861" y2="17.265" gradientUnits="userSpaceOnUse"><stop stop-color="#FF6F1B"/><stop offset=".229" stop-color="#E09900"/><stop offset=".708" stop-color="#5FC050"/><stop offset=".943" stop-color="#499EC5"/></linearGradient><linearGradient id="paint2_linear" x1="6.64" y1="17.265" x2="197.861" y2="17.265" gradientUnits="userSpaceOnUse"><stop stop-color="#FF6F1B"/><stop offset=".229" stop-color="#E09900"/><stop offset=".708" stop-color="#5FC050"/><stop offset=".943" stop-color="#499EC5"/></linearGradient><linearGradient id="paint3_linear" x1="6.64" y1="17.265" x2="197.861" y2="17.265" gradientUnits="userSpaceOnUse"><stop stop-color="#FF6F1B"/><stop offset=".229" stop-color="#E09900"/><stop offset=".708" stop-color="#5FC050"/><stop offset=".943" stop-color="#499EC5"/></linearGradient><linearGradient id="paint4_linear" x1="6.64" y1="17.265" x2="197.861" y2="17.265" gradientUnits="userSpaceOnUse"><stop stop-color="#FF6F1B"/><stop offset=".229" stop-color="#E09900"/><stop offset=".708" stop-color="#5FC050"/><stop offset=".943" stop-color="#499EC5"/></linearGradient><linearGradient id="paint5_linear" x1="6.64" y1="17.265" x2="197.861" y2="17.265" gradientUnits="userSpaceOnUse"><stop stop-color="#FF6F1B"/><stop offset=".229" stop-color="#E09900"/><stop offset=".708" stop-color="#5FC050"/><stop offset=".943" stop-color="#499EC5"/></linearGradient><linearGradient id="paint6_linear" x1="6.64" y1="17.265" x2="197.861" y2="17.265" gradientUnits="userSpaceOnUse"><stop stop-color="#FF6F1B"/><stop offset=".229" stop-color="#E09900"/><stop offset=".708" stop-color="#5FC050"/><stop offset=".943" stop-color="#499EC5"/></linearGradient><linearGradient id="paint7_linear" x1="6.64" y1="17.265" x2="197.861" y2="17.265" gradientUnits="userSpaceOnUse"><stop stop-color="#FF6F1B"/><stop offset=".229" stop-color="#E09900"/><stop offset=".708" stop-color="#5FC050"/><stop offset=".943" stop-color="#499EC5"/></linearGradient><linearGradient id="paint8_linear" x1="6.64" y1="17.265" x2="197.861" y2="17.265" gradientUnits="userSpaceOnUse"><stop stop-color="#FF6F1B"/><stop offset=".229" stop-color="#E09900"/><stop offset=".708" stop-color="#5FC050"/><stop offset=".943" stop-color="#499EC5"/></linearGradient><linearGradient id="paint9_linear" x1="6.64" y1="17.265" x2="197.861" y2="17.265" gradientUnits="userSpaceOnUse"><stop stop-color="#FF6F1B"/><stop offset=".229" stop-color="#E09900"/><stop offset=".708" stop-color="#5FC050"/><stop offset=".943" stop-color="#499EC5"/></linearGradient><linearGradient id="paint10_linear" x1="6.64" y1="17.265" x2="197.861" y2="17.265" gradientUnits="userSpaceOnUse"><stop stop-color="#FF6F1B"/><stop offset=".229" stop-color="#E09900"/><stop offset=".708" stop-color="#5FC050"/><stop offset=".943" stop-color="#499EC5"/></linearGradient><linearGradient id="paint11_linear" x1="212.964" y1="17.265" x2="296.455" y2="17.265" gradientUnits="userSpaceOnUse"><stop stop-color="#FF6F1B"/><stop offset="1" stop-color="#EA8600"/></linearGradient><linearGradient id="paint12_linear" x1="212.964" y1="17.265" x2="296.455" y2="17.265" gradientUnits="userSpaceOnUse"><stop stop-color="#FF6F1B"/><stop offset="1" stop-color="#EA8600"/></linearGradient><linearGradient id="paint13_linear" x1="212.964" y1="17.265" x2="296.455" y2="17.265" gradientUnits="userSpaceOnUse"><stop stop-color="#FF6F1B"/><stop offset="1" stop-color="#EA8600"/></linearGradient><linearGradient id="paint14_linear" x1="212.964" y1="17.265" x2="296.455" y2="17.265" gradientUnits="userSpaceOnUse"><stop stop-color="#FF6F1B"/><stop offset="1" stop-color="#EA8600"/></linearGradient><linearGradient id="paint15_linear" x1="212.964" y1="17.265" x2="296.455" y2="17.265" gradientUnits="userSpaceOnUse"><stop stop-color="#FF6F1B"/><stop offset="1" stop-color="#EA8600"/></linearGradient><clipPath id="clip0"><path fill="#fff" d="M0 0h21v22H0z"/></clipPath><clipPath id="clip0"><path fill="#fff" d="M0 0h22v22H0z"/></clipPath><clipPath id="clip0"><path fill="#fff" d="M0 0h67v67H0z"/></clipPath><clipPath id="clip0"><path fill="#fff" d="M0 0h18v18H0z"/></clipPath><clipPath id="clip0"><path fill="#fff" d="M0 0h65v65H0z"/></clipPath><clipPath id="clip0"><path fill="#fff" transform="rotate(11.684 3.736 36.518)" d="M0 0h36.899v36.899H0z"/></clipPath><clipPath id="clip0"><path fill="#fff" d="M0 0h35v35H0z"/></clipPath><clipPath id="clip0"><path fill="#fff" d="M0 0h67v67H0z"/></clipPath><clipPath id="clip0"><path fill="#fff" d="M0 0h35v35H0z"/></clipPath></defs><symbol id="arrow-down-sign-to-navigate 1" viewBox="0 0 28 28"><path d="M14 4.6A2.3 2.3 0 1014 0a2.3 2.3 0 000 4.6zm7.097 10.145c-.649-7.288-4.122-8.742-4.122-8.742s-3.357-2.018-6.89.552c-2.29 2.085-2.82 5.268-3.182 8.342-.183 1.562 2.26 1.544 2.442 0 .216-1.834.525-3.678 1.435-5.247l-.004 1.771-.017 8.512v6.752c0 .726.533 1.315 1.28 1.315s1.353-.59 1.353-1.315v-9.652h1.195v9.683c0 1.574 2.442 1.574 2.442 0v-6.784l.103-8.528.002-2.047c.976 1.598 1.298 3.497 1.52 5.386.183 1.545 2.626 1.564 2.443.002z" fill="#FF972F"/></symbol><symbol id="arrow" viewBox="0 0 40 40"><path d="M31.4 20c0 .717-.273 1.434-.82 1.98l-17.199 17.2a2.801 2.801 0 11-3.962-3.962L24.64 20 9.418 4.782A2.801 2.801 0 0113.383.82l17.197 17.2c.546.547.82 1.263.82 1.98z" fill="#522478"/></symbol><symbol id="cards" viewBox="0 0 37 37"><path d="M36.048 12.02L24.978.95a3.256 3.256 0 00-4.598 0L6.49 14.84H3.252A3.256 3.256 0 000 18.094v15.654A3.256 3.256 0 003.252 37h24.905a3.256 3.256 0 003.252-3.252V21.259l4.64-4.64a3.256 3.256 0 000-4.599zM21.913 2.484a1.081 1.081 0 011.533 0l5.704 5.704-6.654 6.653H9.556L21.913 2.484zm7.328 31.263c0 .598-.487 1.084-1.084 1.084H3.252a1.085 1.085 0 01-1.084-1.084V18.093c0-.598.486-1.084 1.084-1.084h24.905c.597 0 1.084.486 1.084 1.084v15.654zm-.643-18.876a3.259 3.259 0 00-.441-.03h-2.595l5.12-5.12 1.534 1.533-3.618 3.617zm5.917.215l-3.106 3.107v-.1c0-.824-.309-1.577-.816-2.15l3.156-3.156.766.766c.423.423.423 1.11 0 1.533z" fill="#fff"/><path d="M4.336 29.382H8.37v2.168H4.336v-2.168zm6.234 0h4.034v2.168H10.57v-2.168zm6.235 0h4.034v2.168h-4.034v-2.168zm6.234 0h4.034v2.168h-4.034v-2.168zM11.654 20.29H4.336v6.504h7.318V20.29zm-2.168 4.336H6.504v-2.168h2.982v2.168z" fill="#fff"/></symbol><symbol id="check" viewBox="0 0 20 16"><path d="M7.658 15.471a1.018 1.018 0 01-1.444 0L.45 9.705a1.531 1.531 0 010-2.166l.722-.722a1.531 1.531 0 012.166 0l3.6 3.6L16.662.69a1.531 1.531 0 012.166 0l.722.722a1.531 1.531 0 010 2.166L7.658 15.47z"/></symbol><symbol id="close-big" viewBox="0 0 26 26"><path d="M25.121 5.121L17.243 13l7.878 7.878a3 3 0 01-4.241 4.244L13 17.242l-7.879 7.88a2.99 2.99 0 01-2.12.878 3 3 0 01-2.12-5.122L8.755 13 .879 5.12A3 3 0 015.12.878L13 8.757 20.879.878a3 3 0 014.242 4.243z" fill="#009EFD"/></symbol><symbol id="close" viewBox="0 0 15 15"><path d="M.775 15a.772.772 0 01-.545-1.318L13.686.226a.772.772 0 111.091 1.092L1.322 14.774A.774.774 0 01.775 15z"/><path d="M14.232 15a.765.765 0 01-.545-.226L.23 1.318A.772.772 0 011.32.226l13.457 13.456A.772.772 0 0114.232 15z"/></symbol><symbol id="contract" viewBox="0 0 35 35"><path d="M34.098 11.014a3.08 3.08 0 00-4.351 0l-3.085 3.088V5.976c0-.821-.32-1.594-.901-2.175l-2.9-2.9A3.056 3.056 0 0020.686 0H3.078A3.08 3.08 0 00.002 3.076v28.848A3.08 3.08 0 003.078 35h20.508a3.08 3.08 0 003.076-3.076v-9.117l7.436-7.442a3.074 3.074 0 000-4.35zM20.51 2.052c.193 0 .567-.034.9.3l2.9 2.9c.326.326.301.682.301.901H20.51V2.051zm4.101 29.873c0 .565-.46 1.025-1.025 1.025H3.078c-.565 0-1.025-.46-1.025-1.025V3.076c0-.565.46-1.025 1.025-1.025h15.38v5.127c0 .566.46 1.025 1.026 1.025h5.127v7.952l-3.025 3.028-1.45 1.45a1.02 1.02 0 00-.247.4l-1.45 4.35a1.025 1.025 0 001.297 1.297l4.35-1.45a1.02 1.02 0 00.4-.247l.125-.125v7.066zm-2.3-10.567l1.45 1.45-.553.554-2.175.725.725-2.175.554-.554zm2.9 0l-1.45-1.45 4.93-4.933 1.45 1.45-4.93 4.933zm7.436-7.442l-1.057 1.058-1.45-1.45 1.057-1.058a1.025 1.025 0 111.45 1.45z" fill="#fff"/><path d="M19.484 10.254H5.128a1.025 1.025 0 000 2.05h14.356a1.025 1.025 0 000-2.05zm-4.102 4.101H5.128a1.025 1.025 0 000 2.051h10.254a1.025 1.025 0 100-2.05zm0 4.102H5.128a1.025 1.025 0 000 2.05h10.254a1.025 1.025 0 000-2.05zm0 4.102H5.128a1.025 1.025 0 000 2.05h10.254a1.025 1.025 0 000-2.05zm4.102 6.289H13.33a1.025 1.025 0 100 2.05h6.153a1.025 1.025 0 000-2.05z" fill="#fff"/></symbol><symbol id="deal" viewBox="0 0 41 41"><g clip-path="url(#clip0)"><path d="M40.835 16.374L33.548 3.957a1.201 1.201 0 00-1.637-.432l-4.367 2.521L23.61 4.6a4.392 4.392 0 00-3.722.32l-5.974 3.449L8.618 5.31a1.201 1.201 0 00-1.659.472L.143 18.491A1.201 1.201 0 00.6 20.099l2.705 1.562-1.357 2.349a3.608 3.608 0 001.32 4.922c.798.462 1.701.58 2.54.405a3.588 3.588 0 001.62 1.998c.799.46 1.702.58 2.54.404a3.589 3.589 0 001.621 1.998 3.59 3.59 0 002.54.404 3.588 3.588 0 001.621 1.998 3.608 3.608 0 004.923-1.319l.155-.268 4.507 2.602a3.607 3.607 0 004.923-1.319c.234-.406.38-.84.443-1.277a3.61 3.61 0 004.04-1.682c.285-.495.44-1.03.474-1.566a3.607 3.607 0 003.315-1.795 3.606 3.606 0 00-.103-3.768 3.58 3.58 0 001.118-1.194 3.608 3.608 0 00-1.179-4.837l2.195-1.806a1.2 1.2 0 00.273-1.536zM21.089 7a1.996 1.996 0 011.692-.145l4.462 1.641a1.2 1.2 0 001.015-.087l3.822-2.206 6.164 10.504-2.095 1.725-14.427-8.33a1.201 1.201 0 00-1.202 0l-6.64 3.834c-.552.334-1.33.126-1.64-.44-.335-.552-.127-1.33.44-1.64L21.089 7zM4.469 26.852a1.202 1.202 0 01-.44-1.64l2.003-3.468a1.202 1.202 0 011.64-.44c.574.331.771 1.067.44 1.64L6.11 26.413a1.202 1.202 0 01-1.64.44zm4.161 2.402a1.202 1.202 0 01-.44-1.64l2.803-4.855a1.202 1.202 0 012.08 1.201l-2.802 4.855a1.202 1.202 0 01-1.64.44zm4.161 2.403a1.202 1.202 0 01-.44-1.641l2.002-3.468a1.202 1.202 0 012.081 1.202l-2.002 3.467a1.202 1.202 0 01-1.64.44zm4.161 2.402a1.203 1.203 0 01-.44-1.64l1.202-2.081a1.203 1.203 0 011.64-.44c.574.331.771 1.067.44 1.64l-1.201 2.081a1.202 1.202 0 01-1.64.44zm19.499-5.745a1.202 1.202 0 01-1.641.44l-6.242-3.604a1.201 1.201 0 00-1.2 2.08l4.854 2.803c.573.332.77 1.068.44 1.641a1.202 1.202 0 01-1.642.44l-4.854-2.803a1.201 1.201 0 10-1.201 2.08l2.774 1.602c.573.331.77 1.067.44 1.64a1.202 1.202 0 01-1.641.44l-4.52-2.61a3.608 3.608 0 00-1.462-4.646 3.582 3.582 0 00-1.565-.474 3.607 3.607 0 00-1.795-3.315 3.582 3.582 0 00-1.566-.474 3.607 3.607 0 00-1.795-3.315 3.606 3.606 0 00-3.768.103 3.581 3.581 0 00-1.193-1.119 3.61 3.61 0 00-4.215.445L2.81 18.6 8.49 8.01l3.022 1.744-.034.02a3.58 3.58 0 00-1.68 2.187 3.58 3.58 0 00.361 2.735 3.58 3.58 0 002.188 1.678c.93.25 1.9.122 2.734-.36l6.04-3.487 15.905 9.184c.574.33.771 1.067.44 1.64a1.202 1.202 0 01-1.641.44l-4.854-2.803a1.201 1.201 0 10-1.201 2.08l6.24 3.604c.575.331.772 1.068.44 1.641z" fill="#fff"/></g></symbol><symbol id="facebook" viewBox="0 0 14 28"><path d="M11.444 4.65H14V.196C13.559.137 12.043 0 10.276 0c-3.685 0-6.21 2.318-6.21 6.579V10.5H0v4.977h4.067V28h4.986V15.478h3.902l.62-4.977H9.05V7.072c.002-1.438.389-2.423 2.393-2.423z"/></symbol><symbol id="fall" viewBox="0 0 35 35"><g clip-path="url(#clip0)"><path d="M34.891 13.747a1.026 1.026 0 00-.917-.567h-4.466v-2.27a1.025 1.025 0 00-1.666-.8l-3.218 2.574 1.565-7.043a1.026 1.026 0 00-1.46-1.14L21.253 6.24 18.417.567a1.026 1.026 0 00-1.835 0L13.746 6.24 10.27 4.502a1.025 1.025 0 00-1.46 1.14l1.566 7.042-3.219-2.574a1.026 1.026 0 00-1.666.8v2.27H1.025a1.026 1.026 0 00-.82 1.64l2.86 3.813-1.795 2.692a1.025 1.025 0 00.395 1.485l5.912 2.957-.974 5.843a1.026 1.026 0 001.27 1.16l8.601-2.24v3.444a1.025 1.025 0 102.05 0V30.53l8.602 2.24a1.026 1.026 0 001.27-1.16l-.974-5.843 5.912-2.957a1.026 1.026 0 00.395-1.485l-1.794-2.692 2.86-3.813c.233-.31.27-.726.096-1.073zm-5.065 5.42l1.552 2.328-5.55 2.776a1.025 1.025 0 00-.553 1.086l.838 5.03-7.588-1.976v-2.695l7.259-5.185a1.025 1.025 0 10-1.192-1.669l-6.067 4.334v-10.09a1.025 1.025 0 00-2.05 0v10.09l-6.068-4.334a1.026 1.026 0 00-1.191 1.669l7.258 5.185v2.695l-7.588 1.976.838-5.03a1.025 1.025 0 00-.552-1.086L3.62 21.495l1.552-2.328a1.025 1.025 0 00-.033-1.184L3.076 15.23h3.44c.567 0 1.026-.459 1.026-1.025v-1.162l3.825 3.061a1.026 1.026 0 001.642-1.023l-1.73-7.782 2.467 1.233a1.025 1.025 0 001.376-.458L17.5 3.318l2.377 4.756c.254.506.87.712 1.376.458L23.72 7.3l-1.729 7.782a1.025 1.025 0 001.642 1.023l3.825-3.06v1.161c0 .566.46 1.025 1.026 1.025h3.44l-2.064 2.753a1.025 1.025 0 00-.033 1.184z"/></g></symbol><symbol id="fire" viewBox="0 0 17 23"><path d="M8.507 23C4.094 23 .504 19.39.504 14.952c0-1.934.659-3.249 1.422-4.771.423-.845.861-1.72 1.266-2.835l.42-1.16 1.03.252-.162 1.224c-.134 1 .049 2.134.5 3.111.192.415.423.783.68 1.089a14.192 14.192 0 01.497-4.67 12.941 12.941 0 012.1-4.253c1.187-1.58 2.55-2.613 3.181-2.698L13.23 0l-1.205 1.347a3.328 3.328 0 00-.849 2.223c0 1.588.975 2.716 2.103 4.021.723.837 1.543 1.786 2.164 2.951.72 1.35 1.069 2.792 1.069 4.41C16.51 19.39 12.92 23 8.507 23z" fill="#FF972F"/></symbol><symbol id="flame" viewBox="0 0 28 28"><g clip-path="url(#clip0)"><path d="M14.009 28c-5.373 0-9.743-4.395-9.743-9.797 0-2.355.802-3.955 1.73-5.809.516-1.029 1.05-2.093 1.541-3.45L8.05 7.53l1.254.308-.198 1.49c-.163 1.217.06 2.597.609 3.787a5.9 5.9 0 00.827 1.325c-.109-1.976.094-3.881.605-5.684a15.755 15.755 0 012.557-5.178C15.15 1.653 16.808.396 17.577.293L19.757 0 18.29 1.64a4.051 4.051 0 00-1.033 2.706c0 1.934 1.186 3.306 2.56 4.896.88 1.018 1.879 2.173 2.635 3.592.875 1.642 1.3 3.398 1.3 5.369 0 5.402-4.37 9.797-9.743 9.797z" fill="#FF972F"/></g></symbol><symbol id="gallery" viewBox="0 0 40 40"><g clip-path="url(#clip0)" fill="#6E48AA"><path d="M20.256 14.845a4.08 4.08 0 100 8.16 4.08 4.08 0 000-8.16zm0 6.217a2.137 2.137 0 110-4.274 2.137 2.137 0 010 4.274z"/><path d="M36.529 5.519L10.008 2.507a3.643 3.643 0 00-2.866.826 3.691 3.691 0 00-1.409 2.526l-.486 3.983H3.742c-2.138 0-3.74 1.894-3.74 4.031V33.74a3.692 3.692 0 003.74 3.789h26.667c2.137 0 4.08-1.652 4.08-3.789v-.777a4.858 4.858 0 001.846-.777 4.032 4.032 0 001.408-2.623l2.235-19.721a3.935 3.935 0 00-3.45-4.323zM32.546 33.74c0 1.069-1.069 1.846-2.137 1.846H3.742a1.749 1.749 0 01-1.798-1.846v-3.594l7.53-5.538a2.332 2.332 0 013.01.146l5.295 4.663a4.566 4.566 0 002.866 1.069 4.42 4.42 0 002.332-.632l9.569-5.537v9.423zm0-11.706l-10.59 6.169c-.909.538-2.06.44-2.865-.243l-5.343-4.712a4.323 4.323 0 00-5.392-.194l-6.412 4.663V13.873c0-1.068.729-2.088 1.798-2.088h26.667a2.234 2.234 0 012.137 2.088v8.16zm5.49-12.454l-.001.019-2.283 19.72c.004.512-.23.997-.632 1.312-.194.195-.631.292-.631.389V13.873a4.177 4.177 0 00-4.08-4.031H7.19l.437-3.789c.095-.49.352-.935.73-1.263a2.234 2.234 0 011.456-.389l26.473 3.06a1.943 1.943 0 011.75 2.119z"/></g></symbol><symbol id="hot-sale" viewBox="0 0 22 22"><g clip-path="url(#clip0)" fill="#fff"><path d="M17.442 7.805c-1.865-2.06-2.974-3.874-3.575-5.032-.652-1.255-.865-2.034-.867-2.04L12.806 0l-.692.309c-.082.036-1.995.909-3.067 3.053-.538 1.077-.646 2.275-.642 3.09a.996.996 0 01-1.698.709l-1.29-1.29-.444.612c-.046.063-1.13 1.56-1.328 1.858a8.77 8.77 0 00-1.454 4.917 8.756 8.756 0 002.599 6.19A8.76 8.76 0 0011 22c4.857 0 8.81-3.952 8.81-8.81 0-1.76-.864-3.723-2.368-5.385zM11 20.71a7.477 7.477 0 01-5.302-2.177 7.474 7.474 0 01-2.217-5.285 7.483 7.483 0 011.24-4.196c.1-.152.504-.714.853-1.199l.22.22a2.28 2.28 0 002.065.625 2.289 2.289 0 001.837-2.252c-.004-.675.08-1.658.505-2.507.516-1.033 1.288-1.708 1.825-2.083.485 1.234 1.715 3.784 4.46 6.815.61.675 2.033 2.467 2.033 4.52 0 4.146-3.373 7.519-7.519 7.519z"/><path d="M12.307 10.945L8.262 16.87h1.43l4.046-5.924h-1.43zm.863 2.708c-.896 0-1.573.601-1.573 1.65 0 1.058.677 1.65 1.574 1.65s1.574-.591 1.574-1.65c0-1.049-.677-1.65-1.574-1.65zm0 2.387c-.185 0-.372-.17-.372-.736 0-.567.187-.737.373-.737s.372.17.372.737-.186.736-.372.736zm-2.767-3.529c0-1.05-.677-1.65-1.574-1.65s-1.574.6-1.574 1.65c0 1.058.677 1.65 1.574 1.65s1.574-.592 1.574-1.65zm-1.946 0c0-.567.186-.736.372-.736s.373.169.373.736-.187.736-.373.736-.372-.169-.372-.736z"/></g></symbol><symbol id="insta" viewBox="0 0 28 28"><path d="M20.243 0H7.715C3.461 0 0 3.461 0 7.716v12.527c0 4.255 3.461 7.716 7.715 7.716h12.528c4.255 0 7.716-3.462 7.716-7.716V7.716C27.959 3.46 24.498 0 20.243 0zm5.235 20.243a5.241 5.241 0 01-5.235 5.235H7.715a5.24 5.24 0 01-5.234-5.235V7.716A5.24 5.24 0 017.715 2.48h12.528a5.241 5.241 0 015.235 5.235v12.527z"/><path d="M13.98 6.775c-3.973 0-7.205 3.232-7.205 7.205 0 3.972 3.232 7.204 7.204 7.204 3.973 0 7.205-3.232 7.205-7.204 0-3.973-3.232-7.205-7.205-7.205zm0 11.928a4.729 4.729 0 01-4.724-4.723 4.729 4.729 0 014.723-4.724 4.729 4.729 0 014.724 4.723 4.729 4.729 0 01-4.724 4.724zm7.506-14.031c-.478 0-.948.193-1.285.532-.34.338-.534.807-.534 1.287 0 .478.195.948.534 1.287.337.337.807.532 1.285.532.48 0 .947-.195 1.287-.532a1.84 1.84 0 00.532-1.287c0-.48-.194-.95-.532-1.287a1.827 1.827 0 00-1.287-.532z"/></symbol><symbol id="license" viewBox="0 0 41 41"><path d="M37.226 6H3.774A3.773 3.773 0 000 9.774v21.872a3.773 3.773 0 003.774 3.775h33.452A3.773 3.773 0 0041 31.646V9.774A3.773 3.773 0 0037.226 6zm1.372 25.646c0 .758-.614 1.372-1.372 1.372H3.774a1.372 1.372 0 01-1.372-1.372V9.774c0-.757.614-1.372 1.372-1.372h33.452c.757 0 1.372.614 1.372 1.372v21.872z" fill="#fff"/><path d="M16.075 23.65a4.399 4.399 0 001.123-2.94 4.423 4.423 0 00-4.418-4.417 4.423 4.423 0 00-4.417 4.417c0 1.128.425 2.158 1.123 2.94a6.35 6.35 0 00-3.053 5.423 1.2 1.2 0 001.201 1.201h10.293a1.2 1.2 0 001.2-1.2 6.35 6.35 0 00-3.052-5.425zm-3.295-4.955c1.112 0 2.016.904 2.016 2.015a2.018 2.018 0 01-2.016 2.016 2.018 2.018 0 01-2.015-2.016c0-1.11.904-2.015 2.015-2.015zm-3.758 9.177a3.952 3.952 0 013.758-2.744 3.952 3.952 0 013.759 2.744H9.022zM33.366 17.58H24.36a1.201 1.201 0 000 2.402h9.006a1.201 1.201 0 000-2.403zm0-6.434H7.634a1.201 1.201 0 000 2.403h25.732a1.201 1.201 0 000-2.403zm0 11.58H24.36a1.201 1.201 0 000 2.402h9.006a1.201 1.201 0 000-2.402zm-2.573 5.146H24.36a1.201 1.201 0 000 2.402h6.433a1.201 1.201 0 000-2.402z" fill="#fff"/></symbol><symbol id="logo" viewBox="0 0 297 29"><path d="M9.693 27.974H4.55L0 1.309h5.38L6.686 11.95c.105.897.211 1.86.316 2.888.106 1.002.211 2.15.317 3.442.105 1.266.198 2.268.277 3.007h.119c.131-1.214.633-4.34 1.503-9.377l1.899-10.6h4.193l1.78 10.523c.634 4.035 1.056 7.187 1.267 9.456h.079c.29-2.928.633-6.067 1.029-9.416L20.77 1.309h5.064l-4.708 26.665h-5.34l-1.583-8.744c-.396-2.242-.791-5.156-1.187-8.743h-.08c-.606 4.167-1.094 7.095-1.463 8.783l-1.78 8.704z" fill="#666"/><path d="M9.693 27.974H4.55L0 1.309h5.38L6.686 11.95c.105.897.211 1.86.316 2.888.106 1.002.211 2.15.317 3.442.105 1.266.198 2.268.277 3.007h.119c.131-1.214.633-4.34 1.503-9.377l1.899-10.6h4.193l1.78 10.523c.634 4.035 1.056 7.187 1.267 9.456h.079c.29-2.928.633-6.067 1.029-9.416L20.77 1.309h5.064l-4.708 26.665h-5.34l-1.583-8.744c-.396-2.242-.791-5.156-1.187-8.743h-.08c-.606 4.167-1.094 7.095-1.463 8.783l-1.78 8.704z" fill="url(#paint0_linear)"/><path d="M35.792 28.29h-.04c-1.925 0-3.547-.646-4.866-1.938-1.292-1.32-2.215-2.968-2.769-4.946-.527-2.004-.791-4.286-.791-6.844 0-3.877.765-7.108 2.295-9.693C31.15 2.285 33.326.992 36.148.992c1.53 0 2.849.396 3.956 1.187 1.135.765 1.992 1.82 2.572 3.165a17.242 17.242 0 011.306 4.194 25.87 25.87 0 01.395 4.628c0 4.827-.765 8.387-2.294 10.682-1.53 2.295-3.627 3.442-6.29 3.442zm.119-4.51h.04c2.03 0 3.046-3.126 3.046-9.376 0-5.935-1.029-8.902-3.086-8.902-1.081 0-1.9.857-2.453 2.572-.527 1.688-.778 3.837-.752 6.448-.052 2.796.185 5.038.712 6.726.554 1.688 1.385 2.532 2.493 2.532z" fill="#666"/><path d="M35.792 28.29h-.04c-1.925 0-3.547-.646-4.866-1.938-1.292-1.32-2.215-2.968-2.769-4.946-.527-2.004-.791-4.286-.791-6.844 0-3.877.765-7.108 2.295-9.693C31.15 2.285 33.326.992 36.148.992c1.53 0 2.849.396 3.956 1.187 1.135.765 1.992 1.82 2.572 3.165a17.242 17.242 0 011.306 4.194 25.87 25.87 0 01.395 4.628c0 4.827-.765 8.387-2.294 10.682-1.53 2.295-3.627 3.442-6.29 3.442zm.119-4.51h.04c2.03 0 3.046-3.126 3.046-9.376 0-5.935-1.029-8.902-3.086-8.902-1.081 0-1.9.857-2.453 2.572-.527 1.688-.778 3.837-.752 6.448-.052 2.796.185 5.038.712 6.726.554 1.688 1.385 2.532 2.493 2.532z" fill="url(#paint1_linear)"/><path d="M47.678 27.974V1.704c1.768-.343 3.653-.514 5.658-.514 3.323 0 5.697.66 7.121 1.978 1.424 1.292 2.136 3.139 2.136 5.539 0 1.45-.356 2.77-1.068 3.956-.712 1.187-1.727 2.084-3.046 2.69v.08c1.662.685 2.743 2.452 3.244 5.3.66 3.851 1.226 6.265 1.701 7.24h-5.42c-.448-.949-.897-3.085-1.345-6.409-.237-1.608-.58-2.716-1.029-3.323-.448-.606-1.107-.91-1.978-.91h-.79v10.643h-5.184zm5.183-22.59v7.952h.95c1.107 0 1.965-.383 2.571-1.148.633-.791.95-1.793.95-3.006 0-2.559-1.069-3.878-3.205-3.957-.607 0-1.029.053-1.266.159z" fill="#666"/><path d="M47.678 27.974V1.704c1.768-.343 3.653-.514 5.658-.514 3.323 0 5.697.66 7.121 1.978 1.424 1.292 2.136 3.139 2.136 5.539 0 1.45-.356 2.77-1.068 3.956-.712 1.187-1.727 2.084-3.046 2.69v.08c1.662.685 2.743 2.452 3.244 5.3.66 3.851 1.226 6.265 1.701 7.24h-5.42c-.448-.949-.897-3.085-1.345-6.409-.237-1.608-.58-2.716-1.029-3.323-.448-.606-1.107-.91-1.978-.91h-.79v10.643h-5.184zm5.183-22.59v7.952h.95c1.107 0 1.965-.383 2.571-1.148.633-.791.95-1.793.95-3.006 0-2.559-1.069-3.878-3.205-3.957-.607 0-1.029.053-1.266.159z" fill="url(#paint2_linear)"/><path d="M66.262 27.974V1.309h5.183v22.273h6.804v4.392H66.262z" fill="#666"/><path d="M66.262 27.974V1.309h5.183v22.273h6.804v4.392H66.262z" fill="url(#paint3_linear)"/><path d="M81.29 27.894V1.704c1.425-.343 3.179-.514 5.262-.514 3.245 0 5.71.791 7.399 2.374 2.32 2.083 3.481 5.67 3.481 10.76 0 5.328-1.24 9.087-3.719 11.276-1.846 1.714-4.55 2.571-8.11 2.571-1.266 0-2.703-.092-4.312-.277zm5.183-22.431v18.396c.185.053.488.08.91.08 1.372 0 2.493-.779 3.363-2.335.87-1.556 1.306-4.049 1.306-7.477 0-5.855-1.517-8.783-4.55-8.783-.475 0-.818.04-1.029.119z" fill="#666"/><path d="M81.29 27.894V1.704c1.425-.343 3.179-.514 5.262-.514 3.245 0 5.71.791 7.399 2.374 2.32 2.083 3.481 5.67 3.481 10.76 0 5.328-1.24 9.087-3.719 11.276-1.846 1.714-4.55 2.571-8.11 2.571-1.266 0-2.703-.092-4.312-.277zm5.183-22.431v18.396c.185.053.488.08.91.08 1.372 0 2.493-.779 3.363-2.335.87-1.556 1.306-4.049 1.306-7.477 0-5.855-1.517-8.783-4.55-8.783-.475 0-.818.04-1.029.119z" fill="url(#paint4_linear)"/><path d="M109.485 27.974V6.096h-4.708V1.309h14.638v4.787h-4.748v21.878h-5.182z" fill="#666"/><path d="M109.485 27.974V6.096h-4.708V1.309h14.638v4.787h-4.748v21.878h-5.182z" fill="url(#paint5_linear)"/><path d="M122.128 27.974V1.704c1.767-.343 3.653-.514 5.657-.514 3.323 0 5.697.66 7.121 1.978 1.425 1.292 2.137 3.139 2.137 5.539 0 1.45-.356 2.77-1.068 3.956-.713 1.187-1.728 2.084-3.047 2.69v.08c1.662.685 2.743 2.452 3.244 5.3.66 3.851 1.227 6.265 1.701 7.24h-5.419c-.449-.949-.897-3.085-1.346-6.409-.237-1.608-.58-2.716-1.028-3.323-.449-.606-1.108-.91-1.978-.91h-.792v10.643h-5.182zm5.182-22.59v7.952h.95c1.108 0 1.965-.383 2.571-1.148.633-.791.95-1.793.95-3.006 0-2.559-1.068-3.878-3.205-3.957-.606 0-1.028.053-1.266.159z" fill="#666"/><path d="M122.128 27.974V1.704c1.767-.343 3.653-.514 5.657-.514 3.323 0 5.697.66 7.121 1.978 1.425 1.292 2.137 3.139 2.137 5.539 0 1.45-.356 2.77-1.068 3.956-.713 1.187-1.728 2.084-3.047 2.69v.08c1.662.685 2.743 2.452 3.244 5.3.66 3.851 1.227 6.265 1.701 7.24h-5.419c-.449-.949-.897-3.085-1.346-6.409-.237-1.608-.58-2.716-1.028-3.323-.449-.606-1.108-.91-1.978-.91h-.792v10.643h-5.182zm5.182-22.59v7.952h.95c1.108 0 1.965-.383 2.571-1.148.633-.791.95-1.793.95-3.006 0-2.559-1.068-3.878-3.205-3.957-.606 0-1.028.053-1.266.159z" fill="url(#paint6_linear)"/><path d="M149.731 21.881h-4.787l-1.187 6.093h-5.024l5.776-26.665h6.211l5.183 26.665h-5.064l-1.108-6.093zm-4.272-4.035h3.798l-.871-5.579c-.158-.87-.448-2.888-.87-6.053h-.119c-.58 3.825-.897 5.842-.949 6.053l-.989 5.579z" fill="#666"/><path d="M149.731 21.881h-4.787l-1.187 6.093h-5.024l5.776-26.665h6.211l5.183 26.665h-5.064l-1.108-6.093zm-4.272-4.035h3.798l-.871-5.579c-.158-.87-.448-2.888-.87-6.053h-.119c-.58 3.825-.897 5.842-.949 6.053l-.989 5.579z" fill="url(#paint7_linear)"/><path d="M167.515 27.974H161.7l-5.935-26.665h5.737l1.899 11.512c.791 5.275 1.24 8.361 1.345 9.258h.079a186.29 186.29 0 011.266-9.376l1.82-11.394h5.697l-6.093 26.665z" fill="#666"/><path d="M167.515 27.974H161.7l-5.935-26.665h5.737l1.899 11.512c.791 5.275 1.24 8.361 1.345 9.258h.079a186.29 186.29 0 011.266-9.376l1.82-11.394h5.697l-6.093 26.665z" fill="url(#paint8_linear)"/><path d="M187.104 11.95v4.313h-6.053v7.2h6.845v4.51h-12.027V1.31h11.592v4.51h-6.41v6.132h6.053z" fill="#666"/><path d="M187.104 11.95v4.313h-6.053v7.2h6.845v4.51h-12.027V1.31h11.592v4.51h-6.41v6.132h6.053z" fill="url(#paint9_linear)"/><path d="M191.439 27.974V1.309h5.182v22.273h6.805v4.392h-11.987z" fill="#666"/><path d="M191.439 27.974V1.309h5.182v22.273h6.805v4.392h-11.987z" fill="url(#paint10_linear)"/><path d="M211.977 1.309h5.182v17.328c0 3.402.844 5.103 2.532 5.103.818 0 1.451-.369 1.899-1.107.448-.765.673-2.097.673-3.996V1.309h5.182v16.418c0 3.429-.659 6.053-1.978 7.873-1.292 1.793-3.204 2.69-5.736 2.69-2.717 0-4.695-.883-5.935-2.65-1.213-1.794-1.819-4.418-1.819-7.873V1.309z" fill="#666"/><path d="M211.977 1.309h5.182v17.328c0 3.402.844 5.103 2.532 5.103.818 0 1.451-.369 1.899-1.107.448-.765.673-2.097.673-3.996V1.309h5.182v16.418c0 3.429-.659 6.053-1.978 7.873-1.292 1.793-3.204 2.69-5.736 2.69-2.717 0-4.695-.883-5.935-2.65-1.213-1.794-1.819-4.418-1.819-7.873V1.309z" fill="url(#paint11_linear)"/><path d="M236.465 27.974h-4.549V1.309h4.747l4.115 10.484a120.039 120.039 0 012.848 7.754h.079c-.343-6.014-.514-10.128-.514-12.344V1.31h4.55v26.665h-4.748l-4.075-10.168c-1.134-2.77-2.044-5.433-2.73-7.991h-.079c.238 4.035.356 8.083.356 12.145v6.014z" fill="#666"/><path d="M236.465 27.974h-4.549V1.309h4.747l4.115 10.484a120.039 120.039 0 012.848 7.754h.079c-.343-6.014-.514-10.128-.514-12.344V1.31h4.55v26.665h-4.748l-4.075-10.168c-1.134-2.77-2.044-5.433-2.73-7.991h-.079c.238 4.035.356 8.083.356 12.145v6.014z" fill="url(#paint12_linear)"/><path d="M252.315 1.309h5.183v26.665h-5.183V1.309z" fill="#666"/><path d="M252.315 1.309h5.183v26.665h-5.183V1.309z" fill="url(#paint13_linear)"/><path d="M269.289 28.29h-.04c-1.925 0-3.547-.646-4.866-1.938-1.292-1.32-2.215-2.968-2.769-4.946-.528-2.004-.791-4.286-.791-6.844 0-3.877.765-7.108 2.294-9.693 1.53-2.584 3.706-3.877 6.528-3.877 1.53 0 2.848.396 3.956 1.187 1.134.765 1.992 1.82 2.572 3.165a17.236 17.236 0 011.305 4.194 25.84 25.84 0 01.396 4.628c0 4.827-.765 8.387-2.295 10.682-1.529 2.295-3.626 3.442-6.29 3.442zm.119-4.51h.039c2.031 0 3.046-3.126 3.046-9.376 0-5.935-1.028-8.902-3.085-8.902-1.082 0-1.899.857-2.453 2.572-.528 1.688-.778 3.837-.752 6.448-.053 2.796.185 5.038.712 6.726.554 1.688 1.385 2.532 2.493 2.532z" fill="#666"/><path d="M269.289 28.29h-.04c-1.925 0-3.547-.646-4.866-1.938-1.292-1.32-2.215-2.968-2.769-4.946-.528-2.004-.791-4.286-.791-6.844 0-3.877.765-7.108 2.294-9.693 1.53-2.584 3.706-3.877 6.528-3.877 1.53 0 2.848.396 3.956 1.187 1.134.765 1.992 1.82 2.572 3.165a17.236 17.236 0 011.305 4.194 25.84 25.84 0 01.396 4.628c0 4.827-.765 8.387-2.295 10.682-1.529 2.295-3.626 3.442-6.29 3.442zm.119-4.51h.039c2.031 0 3.046-3.126 3.046-9.376 0-5.935-1.028-8.902-3.085-8.902-1.082 0-1.899.857-2.453 2.572-.528 1.688-.778 3.837-.752 6.448-.053 2.796.185 5.038.712 6.726.554 1.688 1.385 2.532 2.493 2.532z" fill="url(#paint14_linear)"/><path d="M285.725 27.974h-4.55V1.309h4.748l4.114 10.484a120.034 120.034 0 012.849 7.754h.079c-.343-6.014-.515-10.128-.515-12.344V1.31H297v26.665h-4.747l-4.075-10.168c-1.134-2.77-2.044-5.433-2.73-7.991h-.079c.237 4.035.356 8.083.356 12.145v6.014z" fill="#666"/><path d="M285.725 27.974h-4.55V1.309h4.748l4.114 10.484a120.034 120.034 0 012.849 7.754h.079c-.343-6.014-.515-10.128-.515-12.344V1.31H297v26.665h-4.747l-4.075-10.168c-1.134-2.77-2.044-5.433-2.73-7.991h-.079c.237 4.035.356 8.083.356 12.145v6.014z" fill="url(#paint15_linear)"/></symbol><symbol id="menu" viewBox="0 0 30 30"><path d="M27.097 1.452H2.903A2.912 2.912 0 000 4.355a2.912 2.912 0 002.903 2.903h24.194A2.912 2.912 0 0030 4.355a2.912 2.912 0 00-2.903-2.903zm0 10.645H2.903A2.912 2.912 0 000 15a2.912 2.912 0 002.903 2.903h24.194A2.912 2.912 0 0030 15a2.912 2.912 0 00-2.903-2.903zm0 10.645H2.903A2.912 2.912 0 000 25.645a2.912 2.912 0 002.903 2.903h24.194A2.912 2.912 0 0030 25.645a2.912 2.912 0 00-2.903-2.903z" fill="#009EFD"/></symbol><symbol id="menu1" viewBox="0 0 21 22"><g clip-path="url(#clip0)"><path d="M7.63 0H1.6C.718 0 .001.751.001 1.675v6.316c0 .924.717 1.675 1.599 1.675h6.03c.88 0 1.598-.751 1.598-1.675V1.675C9.228.751 8.511 0 7.629 0zm11.771 0h-6.029c-.882 0-1.599.751-1.599 1.675v6.316c0 .924.717 1.675 1.599 1.675h6.03c.88 0 1.598-.751 1.598-1.675V1.675C21 .751 20.283 0 19.401 0zM7.628 12.334H1.6c-.882 0-1.599.751-1.599 1.675v6.316C0 21.249.717 22 1.6 22h6.028c.882 0 1.6-.751 1.6-1.675v-6.316c-.001-.924-.718-1.675-1.6-1.675zm11.773 0h-6.029c-.882 0-1.599.751-1.599 1.675v6.316c0 .924.717 1.675 1.599 1.675h6.03c.88 0 1.598-.751 1.598-1.675v-6.316c0-.924-.717-1.675-1.599-1.675z"/></g></symbol><symbol id="menu2" viewBox="0 0 30 30"><path d="M2.609 4.544a2.61 2.61 0 100 5.218 2.61 2.61 0 000-5.218zm0 7.848a2.608 2.608 0 10-.001 5.217 2.608 2.608 0 000-5.217zm0 7.848a2.609 2.609 0 100 5.217 2.609 2.609 0 000-5.218zM28.038 5.19H9.483a1.962 1.962 0 000 3.925h18.555a1.962 1.962 0 000-3.924zm0 7.848H9.483a1.962 1.962 0 000 3.924h18.555a1.962 1.962 0 000-3.924zm0 7.848H9.483a1.962 1.962 0 000 3.923h18.555a1.962 1.962 0 000-3.923z"/></symbol><symbol id="open-box" viewBox="0 0 22 22"><g clip-path="url(#clip0)" fill="#fff"><path d="M19.981 12.89H5.314l4.285-2.474L18.53 5.26a.644.644 0 00.236-.88l-1.934-3.35a.645.645 0 00-.88-.235l-3.09 1.784a2.577 2.577 0 10-5.155.089l.068 2.01-1.707-1.064a2.575 2.575 0 00-2.655-.045 2.581 2.581 0 000 4.465L.323 9.818a.644.644 0 00-.235.88l1.933 3.35c.179.31.574.412.88.235l.967-.558v7.63c0 .356.289.645.645.645H19.98a.644.644 0 00.645-.645v-7.82a.644.644 0 00-.645-.644zM8.784 6.423l.556-.321 1.29 2.232-1.117.645-1.289-2.233.56-.323zm7.254-4.188l1.29 2.232-5.582 3.223-1.29-2.233 1.117-.644 4.465-2.578zM9.64 1.463a1.288 1.288 0 111.289 2.232l-1.675.967-.186.107-.073-2.145a1.286 1.286 0 01.645-1.161zM5.347 6.918a1.288 1.288 0 11.039-2.21l1.822 1.136-1.861 1.074zm-2.532 5.927l-1.289-2.233L7.108 7.39l1.289 2.232-5.582 3.223zm10.076 1.335v6.53h-1.289v-6.53h1.29zm-7.734 0h5.156v6.53H5.157v-6.53zm14.18 6.53H14.18v-6.53h5.156v6.53z"/><path d="M21.355 6.446h-.644V5.8a.644.644 0 10-1.29 0v.645h-.644a.645.645 0 000 1.289h.645v.644a.645.645 0 001.289 0v-.644h.644a.645.645 0 000-1.29zm-5.242 5.156a.644.644 0 00.645-.645v-.644h.644a.645.645 0 100-1.29h-.644V8.38a.644.644 0 10-1.29 0v.645h-.644a.644.644 0 100 1.289h.645v.644c0 .356.288.645.644.645z"/></g></symbol><symbol id="phone" viewBox="0 0 20 20"><path d="M7.272 5.542h-.438a.84.84 0 00-.61.284c-.21.228-.8.78-.8 1.9 0 1.12.82 2.203.934 2.355.114.152 1.58 2.526 3.903 3.438 1.93.76 2.323.608 2.742.57.42-.038 1.352-.55 1.543-1.082.19-.532.19-.988.133-1.083-.057-.095-.21-.152-.438-.266-.229-.114-1.348-.674-1.558-.75-.21-.076-.362-.114-.514.114-.153.227-.601.754-.735.906-.133.152-.266.171-.495.057-.229-.114-.957-.359-1.83-1.134-.68-.604-1.15-1.374-1.284-1.602-.134-.228-.014-.351.1-.465.103-.102.241-.241.356-.374.114-.133.146-.228.223-.38.076-.152.038-.285-.02-.399-.057-.114-.495-1.24-.698-1.69-.171-.38-.352-.393-.514-.4z" fill="#FF972F"/><circle cx="10" cy="10" r="9.25" stroke="#FF9F26" stroke-width="1.5"/></symbol><symbol id="pics" viewBox="0 0 67 67"><g clip-path="url(#clip0)" fill="#FF972F"><path d="M49.42 64.296a6.327 6.327 0 01-1.6-.207L4.65 52.53c-3.331-.92-5.316-4.364-4.445-7.692l4.746-18.2a2.087 2.087 0 012.554-1.495 2.093 2.093 0 011.497 2.554L4.256 45.898a2.131 2.131 0 001.49 2.588L48.894 60.04a2.08 2.08 0 002.543-1.469l1.474-5.946a2.098 2.098 0 012.535-1.53 2.095 2.095 0 011.53 2.535l-1.48 5.974a6.289 6.289 0 01-6.075 4.69z"/><path d="M60.719 47.545H17.447a6.288 6.288 0 01-6.282-6.281V9.159a6.288 6.288 0 016.282-6.282h43.272A6.288 6.288 0 0167 9.16v32.105a6.288 6.288 0 01-6.281 6.281zM17.447 7.065a2.095 2.095 0 00-2.094 2.094v32.105c0 1.156.938 2.094 2.094 2.094h43.272a2.095 2.095 0 002.093-2.094V9.159a2.095 2.095 0 00-2.093-2.094H17.447z"/><path d="M25.124 22.42a5.59 5.59 0 01-5.584-5.584 5.59 5.59 0 015.584-5.584 5.589 5.589 0 015.583 5.584 5.589 5.589 0 01-5.583 5.584zm0-6.98a1.397 1.397 0 10.001 2.793 1.397 1.397 0 00-.001-2.793zM13.315 44.697a2.095 2.095 0 01-1.48-3.576l12.619-12.618a4.9 4.9 0 016.923 0l3.376 3.375L45.12 19.432a4.885 4.885 0 013.73-1.761c1.552-.087 2.809.62 3.744 1.717l13.897 16.214a2.096 2.096 0 01-3.18 2.728L49.409 22.11c-.184-.221-.41-.21-.536-.25a.701.701 0 00-.536.255L36.5 36.325a2.09 2.09 0 01-1.513.751 2.052 2.052 0 01-1.575-.611l-4.996-4.998c-.355-.354-.648-.354-1.003 0L14.795 44.085a2.08 2.08 0 01-1.48.613z"/></g></symbol><symbol id="play" viewBox="0 0 19 19"><path d="M15.584 7.736L5.03.51C4.542.177 4.05 0 3.643 0c-.79 0-1.277.633-1.277 1.693V17.31c0 1.059.487 1.691 1.275 1.691.408 0 .892-.177 1.38-.512l10.559-7.225c.679-.465 1.055-1.091 1.055-1.764 0-.672-.372-1.298-1.052-1.763z" fill="#fff"/></symbol><symbol id="sale" viewBox="0 0 18 18"><g clip-path="url(#clip0)" fill="#fff"><path d="M14.27 6.386c-1.525-1.686-2.432-3.17-2.925-4.118-.533-1.026-.707-1.663-.709-1.668l-.158-.6-.567.253c-.066.03-1.632.743-2.51 2.498-.44.88-.528 1.861-.524 2.529a.815.815 0 01-1.39.579L4.432 4.803l-.363.501a106.65 106.65 0 00-1.087 1.52 7.176 7.176 0 00-1.19 4.023 7.164 7.164 0 002.127 5.065A7.167 7.167 0 009 18c3.974 0 7.208-3.233 7.208-7.207 0-1.441-.706-3.048-1.937-4.407zM9 16.944a6.12 6.12 0 01-4.338-1.78 6.115 6.115 0 01-1.814-4.325 6.123 6.123 0 011.015-3.433 55.1 55.1 0 01.698-.98l.18.18a1.866 1.866 0 001.689.51 1.872 1.872 0 001.503-1.842c-.003-.553.066-1.357.413-2.051A4.658 4.658 0 019.84 1.518c.397 1.01 1.404 3.096 3.65 5.576.5.553 1.663 2.02 1.663 3.699A6.159 6.159 0 019 16.944z"/><path d="M10.07 8.955l-3.31 4.847h1.17l3.31-4.847h-1.17zm.706 2.216c-.734 0-1.288.492-1.288 1.35 0 .866.554 1.35 1.288 1.35s1.288-.484 1.288-1.35c0-.858-.554-1.35-1.288-1.35zm0 1.953c-.152 0-.304-.139-.304-.603 0-.464.152-.602.304-.602s.305.138.305.602c0 .464-.152.603-.305.603zm-2.264-2.888c0-.858-.554-1.35-1.288-1.35s-1.288.492-1.288 1.35c0 .866.554 1.35 1.288 1.35s1.288-.484 1.288-1.35zm-1.593 0c0-.464.153-.602.305-.602s.305.138.305.602c0 .464-.153.603-.305.603s-.305-.139-.305-.603z"/></g></symbol><symbol id="shield" viewBox="0 0 33 40"><path d="M11.375 19.1a1.172 1.172 0 00-1.657 1.657l3.646 3.646a1.168 1.168 0 001.657 0l7.291-7.292a1.172 1.172 0 00-1.657-1.657l-6.463 6.463-2.817-2.817z" fill="#fff"/><path d="M30.852 5.469A9.057 9.057 0 0122.82.625 1.172 1.172 0 0021.784 0H10.246c-.435 0-.834.24-1.036.625A9.06 9.06 0 011.172 5.47 1.17 1.17 0 000 6.64v11.934c0 4.797 1.499 9.378 4.335 13.248a22.265 22.265 0 0011.327 8.123 1.173 1.173 0 00.706 0 22.266 22.266 0 0011.328-8.123 22.265 22.265 0 004.335-13.248V6.64c0-.647-.532-1.171-1.18-1.171zm-1.165 13.105c0 8.673-5.479 16.27-13.672 19.02a19.988 19.988 0 01-13.671-19.02V7.754a11.388 11.388 0 008.584-5.41h10.175a11.389 11.389 0 008.584 5.409v10.82z" fill="#fff"/><path d="M20.203 5.118a1.172 1.172 0 00-.908-.43h-6.56a1.17 1.17 0 00-.907.43 13.689 13.689 0 01-6.335 4.349c-.48.158-.806.607-.806 1.113v7.994c0 7.176 4.27 13.594 10.877 16.35a1.172 1.172 0 00.902 0c6.608-2.756 10.877-9.174 10.877-16.35V10.58c0-.507-.325-.956-.806-1.114a13.69 13.69 0 01-6.334-4.35zm4.796 13.456c0 6.063-3.51 11.5-8.984 13.99a15.322 15.322 0 01-8.984-13.99v-7.17a16.02 16.02 0 006.247-4.373h5.474a16.02 16.02 0 006.247 4.374v7.169z" fill="#fff"/></symbol><symbol id="smile" viewBox="0 0 65 65"><g clip-path="url(#clip0)"><path d="M47.607 27.93a2.539 2.539 0 01-2.539-2.54 1.27 1.27 0 00-2.54 0 2.539 2.539 0 11-5.077 0c0-3.5 2.848-6.347 6.348-6.347s6.348 2.848 6.348 6.348a2.54 2.54 0 01-2.54 2.539zm-19.931-2.54c0-3.5-2.848-6.347-6.348-6.347a6.355 6.355 0 00-6.348 6.348 2.539 2.539 0 105.079 0 1.271 1.271 0 012.54 0 2.539 2.539 0 105.077 0zm21.64 34.926a2.539 2.539 0 10-2.63-4.343A27.371 27.371 0 0132.5 59.922C17.38 59.922 5.078 47.62 5.078 32.5 5.078 17.38 17.38 5.078 32.5 5.078c15.12 0 27.422 12.302 27.422 27.422 0 5.407-1.608 10.67-4.65 15.22a2.539 2.539 0 104.222 2.822C63.096 45.154 65 38.915 65 32.5c0-8.681-3.38-16.843-9.519-22.981C49.342 3.381 41.181 0 32.5 0 23.819 0 15.657 3.38 9.519 9.519 3.381 15.658 0 23.819 0 32.5c0 8.681 3.38 16.843 9.519 22.981C15.658 61.62 23.819 65 32.5 65c5.943 0 11.758-1.62 16.816-4.684zm-5.898-23.373c-.827 0-1.559.397-2.023 1.009 0 0-3.303 3.562-8.895 3.562s-8.895-3.562-8.895-3.562a2.532 2.532 0 00-2.023-1.009 2.539 2.539 0 00-1.751 4.375c.459.509 4.963 5.274 12.669 5.274s12.21-4.765 12.67-5.274a2.539 2.539 0 00-1.751-4.374z" fill="#FF972F"/></g></symbol><symbol id="smile2" viewBox="0 0 44 44"><g clip-path="url(#clip0)" fill="#6E48AA"><path d="M37.221 11.67a18.33 18.33 0 00-11.68-7.934 18.33 18.33 0 00-13.87 2.65 18.33 18.33 0 00-7.935 11.681 18.33 18.33 0 002.65 13.87 18.33 18.33 0 0011.682 7.934 18.33 18.33 0 0013.87-2.65A18.33 18.33 0 0039.87 25.54a18.33 18.33 0 00-2.65-13.87zM30.75 35.414a16.181 16.181 0 01-12.244 2.34A16.181 16.181 0 018.193 30.75a16.18 16.18 0 01-2.34-12.245 16.18 16.18 0 017.005-10.312 16.181 16.181 0 0112.244-2.34 16.181 16.181 0 0110.313 7.005 16.18 16.18 0 012.339 12.244 16.18 16.18 0 01-7.004 10.312z"/><path d="M17.586 13.592a1.7 1.7 0 011.319 2.006l2.117.438a3.865 3.865 0 00-2.999-4.562 3.865 3.865 0 00-4.562 2.999l2.118.438a1.7 1.7 0 012.007-1.32zm11.347 2.346a1.7 1.7 0 011.32 2.007l2.117.438a3.865 3.865 0 00-2.999-4.562 3.865 3.865 0 00-4.562 2.999l2.117.437a1.7 1.7 0 012.007-1.319zm-18.353 4.87c-1.249 6.044 2.651 11.977 8.694 13.227 6.044 1.25 11.977-2.65 13.227-8.694l.482-2.33-21.92-4.532-.482 2.33zm2.162.226l17.686 3.657-.044.212c-1.009 4.876-5.796 8.023-10.672 7.015-4.876-1.009-8.022-5.796-7.014-10.672l.044-.212z"/></g></symbol><symbol id="spring" viewBox="0 0 35 35"><g clip-path="url(#clip0)"><path d="M32.394 13.81l1.27-2.506-1.027-.522a11.037 11.037 0 00-9.207-.368 11.021 11.021 0 00-3.19-8.74l-.783-.785L17.436 2.9 15.446.92l-.814.814a11.034 11.034 0 00-3.197 8.654 11.021 11.021 0 00-9.31.337l-.986.505 1.291 2.54-2.498 1.283.524 1.025a11.036 11.036 0 007.236 5.704 11.022 11.022 0 00-2.55 8.949l.173 1.095 2.817-.442.447 2.773 1.137-.181a11.038 11.038 0 007.662-5.118 11.023 11.023 0 007.722 5.193l1.095.173.45-2.816 2.776.432.18-1.137a11.036 11.036 0 00-2.498-8.87 11.023 11.023 0 007.326-5.736l.503-.988-2.538-1.3zm-7.563 6.26l-2.853.075 2.25 1.756a8.994 8.994 0 013.444 7.593l-2.727-.425-.443 2.764a8.98 8.98 0 01-6.148-5.681l-.954-2.69-.975 2.682a8.993 8.993 0 01-6.155 5.624l-.44-2.725-2.764.434a8.98 8.98 0 013.5-7.604l2.264-1.739-2.852-.098a8.992 8.992 0 01-7.252-4.114l2.456-1.26-1.268-2.496a8.977 8.977 0 018.324.985l2.357 1.622-.792-2.75a8.99 8.99 0 011.677-8.178l1.956 1.948 1.983-1.975a8.98 8.98 0 011.631 8.21l-.81 2.737 2.365-1.596a8.993 8.993 0 018.286-.927l-1.247 2.462 2.49 1.275a8.979 8.979 0 01-7.303 4.09z"/><path d="M20.912 16.606a4.136 4.136 0 00-2.456-1.788v-4.75h-2.048v4.75a4.134 4.134 0 00-2.445 1.772l-4.516-1.486-.64 1.947 4.514 1.485a4.103 4.103 0 00.93 2.89l-2.805 3.838 1.655 1.21 2.804-3.838a4.096 4.096 0 003.037.007l2.786 3.85 1.66-1.201-2.787-3.85a4.102 4.102 0 00.943-2.887l4.521-1.464-.631-1.95-4.522 1.465zM15.36 18.81c0-1.142.93-2.072 2.072-2.072 1.143 0 2.072.93 2.072 2.072s-.93 2.072-2.072 2.072a2.074 2.074 0 01-2.072-2.072z"/></g></symbol><symbol id="suitcase" viewBox="0 0 67 67"><g clip-path="url(#clip0)" fill="#FF972F"><path d="M59.313 15.765h-.195V7.882H47.294v7.883H43.62l-1.847-8.313a4.456 4.456 0 00-4.377-3.51h-7.792a4.456 4.456 0 00-4.377 3.51l-1.847 8.313h-3.674V7.882H7.882v7.883h-.194C3.448 15.765 0 19.213 0 23.452v31.92c0 4.238 3.449 7.687 7.688 7.687h51.625C63.55 63.059 67 59.61 67 55.37V23.452c0-4.239-3.449-7.687-7.688-7.687zm-8.078 3.94v39.413h-35.47V19.706h35.47zm0-7.881h3.941v3.94h-3.94v-3.94zm-22.16-3.517a.539.539 0 01.529-.425h7.792a.54.54 0 01.53.425l1.657 7.458H27.417l1.658-7.458zm-17.252 3.516h3.942v3.942h-3.942v-3.942zM3.941 55.371V23.452a3.75 3.75 0 013.747-3.746h4.135v39.412H7.688A3.75 3.75 0 013.94 55.37zm59.118 0a3.75 3.75 0 01-3.746 3.747h-4.137V19.706h4.136a3.75 3.75 0 013.747 3.746v31.92z"/><path d="M47.068 35.241l-2.959-11.447-15.263 3.944 2.958 11.447 15.264-3.944zm-5.788-6.646l.986 3.816-7.632 1.972-.986-3.816 7.632-1.972zM26.274 55.176a6.576 6.576 0 006.57-6.568 6.576 6.576 0 00-6.57-6.569 6.576 6.576 0 00-6.568 6.569 6.576 6.576 0 006.568 6.569zm0-9.196a2.63 2.63 0 012.628 2.628 2.63 2.63 0 01-2.628 2.627 2.63 2.63 0 01-2.627-2.627 2.63 2.63 0 012.627-2.628z"/></g></symbol><symbol id="summer" viewBox="0 0 35 35"><path d="M32.269 19.175c-.49.306-.845.528-1.644.528-.8 0-1.154-.222-1.645-.528-.388-.243-.84-.524-1.488-.691-.278-5.27-4.654-9.473-9.992-9.473-5.339 0-9.714 4.202-9.993 9.473-.648.167-1.1.448-1.488.69-.49.307-.845.529-1.644.529-.8 0-1.154-.222-1.644-.528-.598-.374-1.343-.84-2.731-.84v2.051c.8 0 1.154.222 1.644.528.598.374 1.343.84 2.73.84 1.389 0 2.133-.466 2.732-.84.49-.306.844-.528 1.644-.528.8 0 1.154.222 1.644.528.598.374 1.343.84 2.73.84 1.388 0 2.133-.466 2.731-.84.49-.306.845-.528 1.644-.528.8 0 1.154.222 1.644.528.599.374 1.344.84 2.731.84 1.388 0 2.133-.466 2.731-.84.49-.306.845-.528 1.645-.528s1.153.222 1.644.528c.598.374 1.343.84 2.73.84 1.389 0 2.133-.466 2.732-.84.49-.306.844-.528 1.644-.528v-2.05c-1.388 0-2.133.465-2.731.839zm-8.75 0c-.49.306-.845.528-1.645.528s-1.153-.222-1.644-.528c-.598-.374-1.343-.84-2.73-.84-1.388 0-2.133.466-2.731.84-.49.306-.845.528-1.644.528-.8 0-1.154-.222-1.644-.528-.468-.293-1.028-.64-1.913-.778.318-4.098 3.754-7.335 7.932-7.335 4.178 0 7.614 3.237 7.932 7.335-.886.138-1.445.485-1.913.778zm7.106 5.418c-.8 0-1.154-.221-1.645-.528-.598-.374-1.343-.84-2.73-.84-1.388 0-2.133.466-2.732.84-.49.306-.844.528-1.644.528-.8 0-1.153-.221-1.644-.528-.598-.374-1.343-.84-2.73-.84-1.388 0-2.133.466-2.731.84-.49.306-.845.528-1.644.528-.8 0-1.154-.221-1.644-.528-.599-.374-1.343-.84-2.731-.84s-2.133.466-2.731.84c-.49.306-.845.528-1.644.528-.8 0-1.154-.221-1.644-.528-.598-.374-1.343-.84-2.731-.84v2.051c.8 0 1.154.222 1.644.528.598.374 1.343.84 2.73.84 1.389 0 2.133-.466 2.732-.84.49-.306.844-.528 1.644-.528.8 0 1.154.222 1.644.528.598.374 1.343.84 2.73.84 1.388 0 2.133-.466 2.731-.84.49-.306.845-.528 1.644-.528.8 0 1.154.222 1.644.528.599.374 1.344.84 2.731.84 1.388 0 2.133-.466 2.731-.84.49-.306.845-.528 1.645-.528s1.153.222 1.644.528c.598.374 1.343.84 2.73.84 1.389 0 2.133-.466 2.732-.84.49-.306.844-.528 1.644-.528v-2.05c-1.388 0-2.133.465-2.731.84-.49.306-.845.527-1.644.527zm-8.751 4.89c-.8 0-1.154-.221-1.644-.528-.598-.374-1.343-.839-2.73-.839-1.389 0-2.133.465-2.732.84-.49.306-.844.527-1.644.527-.8 0-1.153-.221-1.644-.528-.598-.374-1.343-.839-2.73-.839v2.05c.8 0 1.153.222 1.643.529.599.373 1.344.839 2.731.839 1.388 0 2.133-.465 2.731-.84.49-.306.845-.527 1.644-.527.8 0 1.154.221 1.644.527.599.375 1.343.84 2.731.84s2.133-.465 2.731-.84c.49-.306.845-.527 1.644-.527v-2.051c-1.388 0-2.132.465-2.73.84-.491.306-.845.527-1.645.527zM16.485 3.466h2.051v3.677h-2.05V3.466zM9.839 5.445l1.848-.89 1.595 3.313-1.847.89-1.596-3.313zm-5.126 4.673l1.28-1.603 2.875 2.294-1.28 1.604-2.875-2.295z"/><path d="M2.115 16.553l.457-2 3.585.82-.457 2-3.585-.82zm26.745-1.18l3.585-.82.458 2-3.585.82-.458-2zm-2.7-4.564l2.876-2.294 1.28 1.603-2.876 2.295-1.28-1.604zm-4.42-2.93l1.597-3.313 1.847.89-1.596 3.313-1.847-.89z"/></symbol><symbol id="whatsapp" viewBox="0 0 19 19"><path d="M16.177 2.76A9.417 9.417 0 009.49 0c-2.52 0-4.9.979-6.696 2.757A9.321 9.321 0 000 9.412v.005c0 1.518.4 3.049 1.156 4.446L.026 19l5.196-1.182a9.512 9.512 0 004.265 1.014h.004c2.52 0 4.899-.98 6.696-2.758a9.31 9.31 0 002.795-6.655c0-2.491-.995-4.857-2.805-6.66zM9.49 17.348h-.003a8.014 8.014 0 01-3.81-.966l-.246-.133-3.454.785.75-3.41-.145-.25c-.719-1.24-1.1-2.61-1.1-3.96.004-4.371 3.595-7.932 8.008-7.932 2.132 0 4.135.827 5.64 2.327 1.528 1.522 2.37 3.514 2.369 5.609-.002 4.372-3.595 7.93-8.009 7.93z" fill="#009EFD"/><path d="M6.908 5.264h-.416a.799.799 0 00-.579.271c-.199.217-.76.74-.76 1.805 0 1.064.778 2.093.887 2.237.108.145 1.501 2.4 3.708 3.266 1.834.721 2.207.578 2.605.542.398-.036 1.285-.524 1.466-1.029.18-.505.18-.938.126-1.028-.054-.09-.199-.145-.416-.253-.217-.108-1.281-.64-1.48-.713-.2-.072-.344-.108-.489.109-.145.216-.57.716-.697.86-.127.145-.254.164-.47.055-.218-.108-.91-.34-1.74-1.078-.645-.573-1.093-1.305-1.22-1.522-.126-.216-.013-.333.096-.441.097-.097.23-.23.338-.356.108-.126.14-.216.212-.36.072-.145.036-.271-.019-.38-.054-.108-.47-1.178-.664-1.606-.162-.36-.333-.372-.488-.379z" fill="#009EFD"/></symbol><symbol id="winter" viewBox="0 0 35 35"><g clip-path="url(#clip0)"><path d="M29.66 23.262l-2.23-1.287 2.68-.718a1.094 1.094 0 00-.567-2.113l-4.791 1.284-2.556-1.476a4.924 4.924 0 00-.01-2.933l2.565-1.481c5.178 1.387 4.871 1.322 5.076 1.322a1.094 1.094 0 00.283-2.151l-2.68-.718 2.23-1.287c.342.197.724.294 1.098.294 1.664 0 2.735-1.82 1.89-3.282a2.186 2.186 0 00-4.08 1.093l-2.23 1.288.717-2.679a1.094 1.094 0 10-2.113-.566l-1.284 4.791-2.58 1.49a4.921 4.921 0 00-2.491-1.43V9.681l3.508-3.508a1.094 1.094 0 10-1.547-1.547l-1.961 1.961V4.081a2.188 2.188 0 001.094-1.893A2.19 2.19 0 0017.493 0a2.19 2.19 0 00-2.187 2.188c0 .807.44 1.514 1.093 1.893v2.507l-1.96-1.96a1.094 1.094 0 10-1.547 1.546l3.507 3.508v3.02c-.98.224-1.85.74-2.512 1.453l-2.618-1.511-1.284-4.792a1.094 1.094 0 10-2.113.566l.718 2.679-2.172-1.254a2.186 2.186 0 00-2.752-2.112c-1.878.503-2.204 3.04-.528 4.007a2.184 2.184 0 002.188 0l2.17 1.253-2.679.718a1.094 1.094 0 10.567 2.113l4.791-1.284 2.615 1.51a4.92 4.92 0 00-.008 2.875l-2.607 1.505-4.792-1.284a1.094 1.094 0 10-.566 2.113l2.68.718-2.17 1.252a2.184 2.184 0 00-2.189 0c-1.677.97-1.35 3.505.528 4.008a2.187 2.187 0 002.752-2.112l2.172-1.254-.718 2.679a1.094 1.094 0 002.113.566l1.284-4.792 2.597-1.499a4.924 4.924 0 002.533 1.475v2.952l-3.508 3.508a1.094 1.094 0 101.547 1.547l1.961-1.961v2.575a2.188 2.188 0 00-1.094 1.894A2.19 2.19 0 0017.493 35a2.19 2.19 0 002.187-2.187 2.19 2.19 0 00-1.093-1.894v-2.575l1.96 1.96c.214.214.494.321.774.321.966 0 1.465-1.176.773-1.867l-3.507-3.508v-2.952c.98-.223 1.85-.74 2.512-1.453l2.559 1.478 1.284 4.791a1.094 1.094 0 002.113-.566l-.718-2.679 2.23 1.288a2.186 2.186 0 004.08 1.093c1.108-1.916-1.04-4.108-2.987-2.988zm-12.167-3.028a2.738 2.738 0 01-2.734-2.734 2.738 2.738 0 012.734-2.734 2.737 2.737 0 012.734 2.734 2.737 2.737 0 01-2.734 2.734z"/></g></symbol></svg>