<svg width="67" height="67" viewBox="0 0 67 67" fill="none" xmlns="http://www.w3.org/2000/svg">
<g clip-path="url(#clip0)">
<path d="M59.3125 15.7647H59.1176V7.88236H47.2941V15.7647H43.6199L41.7725 7.45225C41.3135 5.38497 39.5136 3.94118 37.396 3.94118H29.604C27.4864 3.94118 25.6866 5.38497 25.2275 7.45212L23.3801 15.7647H19.7059V7.88236H7.88235V15.7647H7.68753C3.44853 15.7647 0 19.2132 0 23.4522V55.3714C0 59.6103 3.44853 63.0588 7.68753 63.0588H59.3126C63.5515 63.0588 67 59.6103 67 55.3713V23.4522C67 19.2132 63.5515 15.7647 59.3125 15.7647ZM51.2353 19.7059V59.1177H15.7647V19.7059H51.2353ZM51.2353 11.8235H55.1765V15.7647H51.2353V11.8235ZM29.0746 8.30683C29.1302 8.05696 29.3478 7.88236 29.6039 7.88236H37.3959C37.6519 7.88236 37.8696 8.05696 37.9252 8.30696L39.5827 15.7647H27.4173L29.0746 8.30683ZM11.8235 11.8235H15.7647V15.7647H11.8235V11.8235ZM3.94118 55.3713V23.4522C3.94118 21.3865 5.62183 19.7059 7.68753 19.7059H11.8235V59.1177H7.68753C5.62183 59.1177 3.94118 57.437 3.94118 55.3713ZM63.0588 55.3713C63.0588 57.437 61.3782 59.1177 59.3125 59.1177H55.1765V19.7059H59.3125C61.3782 19.7059 63.0588 21.3865 63.0588 23.4522V55.3713Z" fill="#FF972F"/>
<path d="M47.0677 35.241L44.1093 23.7936L28.8461 27.7378L31.8042 39.1852L47.0677 35.241ZM41.2798 28.5954L42.2659 32.4113L34.6341 34.3835L33.648 30.5675L41.2798 28.5954Z" fill="#FF972F"/>
<path d="M26.2744 55.1765C29.8964 55.1765 32.8431 52.2298 32.8431 48.6079C32.8431 44.9859 29.8964 42.0392 26.2744 42.0392C22.6525 42.0392 19.7058 44.9859 19.7058 48.6079C19.7058 52.2298 22.6525 55.1765 26.2744 55.1765ZM26.2744 45.9804C27.7232 45.9804 28.9019 47.1591 28.9019 48.6079C28.9019 50.0566 27.7232 51.2353 26.2744 51.2353C24.8257 51.2353 23.647 50.0566 23.647 48.6079C23.647 47.1591 24.8257 45.9804 26.2744 45.9804Z" fill="#FF972F"/>
</g>
<defs>
<clipPath id="clip0">
<rect width="67" height="67" fill="white"/>
</clipPath>
</defs>
</svg>
