<svg width="18" height="18" viewBox="0 0 18 18" fill="none" xmlns="http://www.w3.org/2000/svg">
<g clip-path="url(#clip0)">
<path d="M14.2706 6.38579C12.7445 4.70022 11.8375 3.2164 11.3454 2.26842C10.8124 1.24162 10.6377 0.604905 10.6363 0.599838L10.4777 0L9.91103 0.25275C9.84481 0.282273 8.27918 0.996259 7.40193 2.75073C6.96156 3.63151 6.87348 4.61214 6.87718 5.27965C6.87932 5.66811 6.60409 6.00542 6.22276 6.08167C5.95541 6.13508 5.68039 6.05197 5.48742 5.859L4.43191 4.80349L4.06881 5.30417C4.03112 5.35614 3.14377 6.57992 2.98222 6.82444C2.19336 8.01859 1.78202 9.40965 1.79268 10.8472C1.80697 12.7672 2.56202 14.566 3.91874 15.9124C5.27538 17.2586 7.07996 18 9.00006 18C12.9743 18 16.2076 14.7667 16.2076 10.7925C16.2076 9.35152 15.5016 7.74536 14.2706 6.38579ZM9.0001 16.9444C7.36041 16.9444 5.81991 16.3118 4.66235 15.1631C3.50476 14.0143 2.86055 12.4788 2.84834 10.8394C2.83919 9.61212 3.19008 8.42497 3.86303 7.40633C3.9452 7.28198 4.2748 6.82215 4.5609 6.42534L4.74103 6.60547C5.18411 7.04855 5.8153 7.23972 6.42988 7.11681C7.30562 6.94165 7.93772 6.16661 7.93283 5.27387C7.92977 4.7214 7.99902 3.91712 8.34614 3.22281C8.76867 2.37778 9.40032 1.82552 9.83925 1.5184C10.2362 2.52814 11.2426 4.61422 13.4881 7.09436C13.9884 7.64687 15.152 9.11327 15.152 10.7925C15.152 14.1846 12.3922 16.9444 9.0001 16.9444Z" fill="white"/>
<path d="M10.0697 8.95532L6.76001 13.8022H7.93016L11.2399 8.95532H10.0697Z" fill="white"/>
<path d="M10.7762 11.171C10.0422 11.171 9.48828 11.6626 9.48828 12.5212C9.48828 13.3867 10.0422 13.8714 10.7762 13.8714C11.5101 13.8714 12.0641 13.3867 12.0641 12.5212C12.0641 11.6626 11.5101 11.171 10.7762 11.171ZM10.7762 13.1236C10.6238 13.1236 10.4715 12.9851 10.4715 12.5212C10.4715 12.0573 10.6238 11.9188 10.7762 11.9188C10.9285 11.9188 11.0808 12.0573 11.0808 12.5212C11.0808 12.9851 10.9285 13.1236 10.7762 13.1236Z" fill="white"/>
<path d="M8.51182 10.2363C8.51182 9.37771 7.9579 8.88611 7.22393 8.88611C6.48995 8.88611 5.93604 9.37771 5.93604 10.2363C5.93604 11.1018 6.48995 11.5865 7.22393 11.5865C7.9579 11.5865 8.51182 11.1018 8.51182 10.2363ZM6.91927 10.2363C6.91927 9.77237 7.0716 9.63387 7.22393 9.63387C7.37625 9.63387 7.52858 9.77237 7.52858 10.2363C7.52858 10.7002 7.37625 10.8387 7.22393 10.8387C7.0716 10.8387 6.91927 10.7002 6.91927 10.2363Z" fill="white"/>
</g>
<defs>
<clipPath id="clip0">
<rect width="18" height="18" fill="white"/>
</clipPath>
</defs>
</svg>
