<svg width="37" height="37" viewBox="0 0 37 37" fill="none" xmlns="http://www.w3.org/2000/svg">
<path d="M36.0481 12.0201L24.9789 0.950942C23.7109 -0.317053 21.6477 -0.316908 20.3798 0.950942L6.49007 14.8408H3.25201C1.45885 14.8408 0 16.2996 0 18.0928V33.747C0 35.5402 1.45885 36.999 3.25201 36.999H28.1566C29.9498 36.999 31.4086 35.5402 31.4086 33.747V21.2586L36.0481 16.6191C37.3161 15.3512 37.3161 13.2881 36.0481 12.0201ZM21.9129 2.48394C22.1243 2.27263 22.4019 2.1669 22.6794 2.1669C22.957 2.1669 23.2346 2.27263 23.4459 2.48394L29.1496 8.1876L22.4964 14.8408H9.55599L21.9129 2.48394ZM29.2406 33.747C29.2406 34.3447 28.7543 34.831 28.1566 34.831H3.25201C2.65429 34.831 2.16801 34.3447 2.16801 33.747V18.0928C2.16801 17.4951 2.65429 17.0088 3.25201 17.0088H28.1566C28.7543 17.0088 29.2406 17.4951 29.2406 18.0928V33.747ZM28.5977 14.8715C28.4533 14.8518 28.3063 14.8408 28.1566 14.8408H25.5624L30.6826 9.72052L32.2156 11.2536L28.5977 14.8715ZM34.5151 15.0862L31.4086 18.1927V18.0928C31.4086 17.2688 31.1 16.5159 30.593 15.9422L33.7486 12.7866L34.5151 13.5531C34.9378 13.9757 34.9378 14.6635 34.5151 15.0862Z" fill="white"/>
<path d="M4.33606 29.3818H8.36992V31.5498H4.33606V29.3818Z" fill="white"/>
<path d="M10.5703 29.3818H14.6042V31.5498H10.5703V29.3818Z" fill="white"/>
<path d="M16.8046 29.3818H20.8385V31.5498H16.8046V29.3818Z" fill="white"/>
<path d="M23.0388 29.3818H27.0727V31.5498H23.0388V29.3818Z" fill="white"/>
<path d="M11.6543 20.2901H4.33606V26.7941H11.6543V20.2901ZM9.4863 24.6261H6.50407V22.4581H9.4863V24.6261Z" fill="white"/>
</svg>
