<svg width="15" height="15" viewBox="0 0 15 15" xmlns="http://www.w3.org/2000/svg" fill="#fff">
<path d="M0.77523 15C0.577643 15 0.380056 14.9249 0.229935 14.7736C-0.0714368 14.4723 -0.0714368 13.9837 0.229935 13.6823L13.6862 0.226029C13.9876 -0.075343 14.4762 -0.075343 14.7775 0.226029C15.0789 0.527401 15.0789 1.016 14.7775 1.31756L1.32147 14.7736C1.17022 14.9239 0.972629 15 0.77523 15Z" />
<path d="M14.2324 15C14.0348 15 13.8374 14.9249 13.6871 14.7736L0.229935 1.31756C-0.0714368 1.016 -0.0714368 0.527401 0.229935 0.226029C0.531307 -0.075343 1.01991 -0.075343 1.32147 0.226029L14.7775 13.6823C15.0789 13.9837 15.0789 14.4723 14.7775 14.7736C14.6263 14.9239 14.4289 15 14.2324 15Z"/>
</svg>
