<svg width="41" height="41" viewBox="0 0 41 41" fill="none" xmlns="http://www.w3.org/2000/svg">
<g clip-path="url(#clip0)">
<path d="M40.8347 16.3742L33.5477 3.95706C33.2135 3.38778 32.4827 3.19472 31.9112 3.5248L27.5439 6.04622L23.6101 4.59929C22.3798 4.14676 21.0229 4.26312 19.8877 4.91864L13.9141 8.36752L8.61826 5.3099C8.3367 5.14734 8.00142 5.10594 7.68863 5.19491C7.37601 5.28395 7.11279 5.49584 6.95912 5.78244L0.142789 18.4909C-0.16375 19.0626 0.0389281 19.7746 0.600756 20.0989L3.30555 21.6606L1.94911 24.01C0.955582 25.7308 1.54728 27.9389 3.26808 28.9325C4.06678 29.3936 4.9703 29.5127 5.8088 29.3365C6.07538 30.1507 6.63032 30.8737 7.42902 31.3348C8.22772 31.7959 9.13124 31.9151 9.96974 31.7388C10.2363 32.553 10.7913 33.2761 11.59 33.7372C12.3887 34.1982 13.2922 34.3174 14.1307 34.1411C14.3973 34.9555 14.9523 35.6784 15.751 36.1395C17.4718 37.133 19.6799 36.5413 20.6735 34.8205L20.8287 34.5517L25.3363 37.1542C27.0571 38.1478 29.2653 37.5561 30.2588 35.8353C30.4933 35.4291 30.6384 34.9957 30.7023 34.5577C32.235 34.9614 33.9119 34.3127 34.7416 32.8755C35.0273 32.3806 35.1812 31.8454 35.2156 31.3104C36.5268 31.3792 37.8306 30.7282 38.5309 29.5153C39.2312 28.3023 39.143 26.8477 38.4278 25.7466C38.874 25.4493 39.2606 25.0484 39.5463 24.5535C40.5123 22.8802 39.9793 20.7466 38.367 19.7164L40.562 17.9095C41.018 17.5342 41.1336 16.8833 40.8347 16.3742ZM21.0888 6.99915C21.6048 6.7011 22.2214 6.64832 22.7809 6.85405L27.2427 8.49517C27.5774 8.61825 27.9491 8.5863 28.2579 8.40804L32.0795 6.20165L38.244 16.7062L36.149 18.431L21.7216 10.1013C21.35 9.88668 20.8921 9.88668 20.5204 10.1013L13.8803 13.935C13.3277 14.2693 12.5507 14.0612 12.2395 13.4953C11.9051 12.9429 12.1133 12.1657 12.6791 11.8545L21.0888 6.99915ZM4.46933 26.852C3.89573 26.5208 3.6985 25.7848 4.0297 25.2112L6.03165 21.7437C6.36286 21.1701 7.09886 20.9729 7.67246 21.3041C8.24605 21.6353 8.44329 22.3713 8.11208 22.9449L6.11013 26.4123C5.77901 26.9859 5.04293 27.1832 4.46933 26.852ZM8.63027 29.2543C8.05667 28.9231 7.85944 28.1871 8.19064 27.6135L10.9934 22.759C11.3246 22.1853 12.0606 21.9882 12.6342 22.3194C13.2078 22.6506 13.405 23.3866 13.0738 23.9602L10.2711 28.8147C9.93995 29.3883 9.20387 29.5855 8.63027 29.2543ZM12.7912 31.6566C12.2176 31.3254 12.0204 30.5894 12.3516 30.0158L14.3535 26.5484C14.6847 25.9748 15.4207 25.7775 15.9943 26.1088C16.5679 26.44 16.7652 27.176 16.434 27.7496L14.432 31.217C14.1009 31.7906 13.3649 31.9878 12.7912 31.6566ZM16.9522 34.0591C16.3786 33.7279 16.1813 32.9918 16.5125 32.4182L17.7137 30.3377C18.0449 29.7641 18.781 29.5668 19.3546 29.898C19.9282 30.2293 20.1254 30.9653 19.7942 31.5389L18.593 33.6194C18.2619 34.193 17.5259 34.3903 16.9522 34.0591ZM36.4506 28.3141C36.1194 28.8877 35.3834 29.0849 34.8098 28.7537L28.5684 25.1502C27.9939 24.8185 27.2592 25.0154 26.9276 25.5898C26.5959 26.1643 26.7927 26.899 27.3672 27.2306L32.2216 30.0334C32.7952 30.3646 32.9924 31.1006 32.6612 31.6742C32.33 32.2478 31.594 32.445 31.0204 32.1138L26.166 29.3111C25.5915 28.9794 24.8569 29.1762 24.5252 29.7507C24.1935 30.3252 24.3904 31.0598 24.9648 31.3915L27.7388 32.9931C28.3124 33.3243 28.5097 34.0603 28.1785 34.6339C27.8473 35.2075 27.1113 35.4047 26.5377 35.0735L22.0177 32.4638C22.8018 30.7895 22.186 28.7585 20.5558 27.8174C20.0609 27.5317 19.5257 27.3777 18.9906 27.3433C19.0594 26.0321 18.4085 24.7283 17.1956 24.0279C16.7007 23.7422 16.1655 23.5883 15.6305 23.5539C15.6992 22.2427 15.0483 20.9389 13.8353 20.2386C12.6224 19.5383 11.1679 19.6265 10.0667 20.3417C9.76946 19.8955 9.36851 19.509 8.87363 19.2232C7.4886 18.4236 5.78838 18.6516 4.65936 19.6679L2.81019 18.6005L8.49037 8.01013L11.5117 9.75456L11.4779 9.77409C10.6444 10.2554 10.0481 11.0324 9.79893 11.9621C9.54989 12.8919 9.67769 13.863 10.159 14.6965C10.6402 15.53 11.4173 16.1263 12.347 16.3755C13.2767 16.6245 14.2478 16.4967 15.0814 16.0155L21.1209 12.5285L37.0262 21.7116C37.5998 22.0428 37.797 22.7788 37.4658 23.3524C37.1346 23.926 36.3986 24.1232 35.825 23.792L30.9706 20.9893C30.3961 20.6576 29.6615 20.8544 29.3298 21.4289C28.9981 22.0034 29.195 22.738 29.7695 23.0697L36.0109 26.6732C36.5846 27.0044 36.7818 27.7405 36.4506 28.3141Z" fill="white"/>
</g>
<defs>
<clipPath id="clip0">
<rect width="41" height="41" fill="white"/>
</clipPath>
</defs>
</svg>
