<svg width="35" height="35" viewBox="0 0 35 35" fill="none" xmlns="http://www.w3.org/2000/svg">
<g clip-path="url(#clip0)">
<path d="M34.8913 13.7466C34.7175 13.3992 34.3626 13.1797 33.9741 13.1797H29.508V10.9102C29.508 10.5161 29.2821 10.1567 28.9267 9.98606C28.5716 9.81516 28.1497 9.86322 27.8421 10.1094L24.6236 12.6844L26.1886 5.64124C26.2746 5.25512 26.1304 4.85404 25.8188 4.61051C25.5069 4.36698 25.0829 4.32452 24.7293 4.50156L21.2531 6.23965L18.4168 0.566901C18.2429 0.219497 17.888 0 17.4995 0C17.1113 0 16.7561 0.219497 16.5823 0.566901L13.7462 6.23965L10.27 4.50156C9.91618 4.32452 9.49214 4.36698 9.18025 4.61051C8.86863 4.85404 8.7247 5.25512 8.81042 5.64124L10.3757 12.6844L7.15725 10.1097C6.84936 9.86349 6.42773 9.81543 6.07231 9.98606C5.71716 10.1567 5.49126 10.5161 5.49126 10.9102V13.1797H1.02494C0.636686 13.1797 0.281538 13.3992 0.107703 13.7466C-0.0658655 14.094 -0.0284816 14.5098 0.204634 14.8203L3.06424 18.6332L1.27008 21.3246C1.10692 21.5692 1.05672 21.8723 1.13229 22.1564C1.20759 22.4408 1.40172 22.679 1.66474 22.8104L7.57728 25.7666L6.60343 31.6095C6.54629 31.9521 6.66672 32.3005 6.92306 32.535C7.17941 32.7692 7.53696 32.8581 7.87315 32.7702L16.4741 30.5301V33.9745C16.4741 34.5409 16.9332 34.9999 17.4995 34.9999C18.0659 34.9999 18.5249 34.5409 18.5249 33.9745V30.5301L27.1259 32.7702C27.2113 32.7924 27.2981 32.8034 27.3841 32.8034C27.6372 32.8034 27.8848 32.7096 28.0762 32.5347C28.3326 32.3003 28.453 31.9521 28.3959 31.6095L27.422 25.7666L33.3343 22.8104C33.5976 22.6787 33.7914 22.4408 33.867 22.1564C33.9423 21.8723 33.8921 21.5692 33.729 21.3246L31.9348 18.6332L34.7944 14.8203C35.0275 14.5098 35.0649 14.094 34.8913 13.7466ZM29.8261 19.167L31.3783 21.4955L25.8273 24.271C25.4246 24.4723 25.2006 24.9127 25.2746 25.3567L26.113 30.3873L18.5249 28.411V25.7159L25.7835 20.531C26.2444 20.2018 26.3512 19.5614 26.022 19.1005C25.6927 18.6396 25.0524 18.5331 24.5915 18.8621L18.5249 23.1957V13.1068C18.5249 12.5407 18.0659 12.0814 17.4995 12.0814C16.9332 12.0814 16.4741 12.5407 16.4741 13.1068V23.1957L10.4075 18.8623C9.94662 18.5331 9.30629 18.6399 8.97705 19.1005C8.6478 19.5614 8.75461 20.202 9.2155 20.531L16.4741 25.7159V28.411L8.88626 30.3873L9.72446 25.3567C9.79869 24.9127 9.57439 24.4723 9.17171 24.271L3.62073 21.4955L5.17296 19.167C5.41409 18.8052 5.401 18.331 5.14012 17.983L3.07572 15.2305H6.51665C7.08275 15.2305 7.54204 14.7715 7.54204 14.2051V13.0435L11.3675 16.1042C11.7071 16.3758 12.1811 16.4035 12.5504 16.1736C12.9195 15.9435 13.1034 15.5055 13.0089 15.081L11.2796 7.29922L13.7462 8.53235C14.2527 8.78576 14.8685 8.58042 15.1219 8.07387L17.4995 3.31836L19.8774 8.07387C20.1305 8.58042 20.7463 8.78576 21.2531 8.53235L23.7194 7.29922L21.9904 15.081C21.8959 15.5055 22.0799 15.9435 22.4489 16.1736C22.8179 16.4035 23.2922 16.3758 23.6318 16.1039L27.4573 13.0435V14.2051C27.4573 14.7715 27.9163 15.2305 28.4827 15.2305H31.9233L29.8589 17.983C29.598 18.331 29.5849 18.8052 29.8261 19.167Z"/>
</g>
<defs>
<clipPath id="clip0">
<rect width="35" height="35" fill="white"/>
</clipPath>
</defs>
</svg>
