<svg width="30" height="30" viewBox="0 0 30 30" fill="none" xmlns="http://www.w3.org/2000/svg">
<path d="M2.60859 4.54375C1.16817 4.54375 0 5.71185 0 7.15331C0 8.59373 1.16817 9.76085 2.60859 9.76085C4.049 9.76085 5.21717 8.59373 5.21717 7.15331C5.21717 5.71185 4.049 4.54375 2.60859 4.54375Z" />
<path d="M2.60859 12.3919C1.16817 12.3919 0 13.5591 0 15.0005C0 16.4409 1.16817 17.609 2.60859 17.609C4.049 17.609 5.21717 16.4409 5.21717 15.0005C5.21717 13.5591 4.049 12.3919 2.60859 12.3919Z" />
<path d="M2.60859 20.2391C1.16817 20.2391 0 21.4072 0 22.8477C0 24.2881 1.16817 25.4562 2.60859 25.4562C4.049 25.4562 5.21717 24.2881 5.21717 22.8477C5.21717 21.4072 4.049 20.2391 2.60859 20.2391Z" />
<path d="M28.0385 5.19076H9.48281C8.39962 5.19076 7.52124 6.06913 7.52124 7.15331C7.52124 8.23657 8.39955 9.11488 9.48281 9.11488H28.0385C29.1216 9.11488 30.0001 8.23657 30.0001 7.15331C30.0001 6.06913 29.1216 5.19076 28.0385 5.19076Z" />
<path d="M28.0385 13.038H9.48281C8.39962 13.038 7.52124 13.9163 7.52124 15.0005C7.52124 16.0838 8.39955 16.9621 9.48281 16.9621H28.0385C29.1216 16.9621 30.0001 16.0838 30.0001 15.0005C30.0001 13.9163 29.1216 13.038 28.0385 13.038Z" />
<path d="M28.0385 20.8861H9.48281C8.39962 20.8861 7.52124 21.7644 7.52124 22.8477C7.52124 23.9309 8.39955 24.8092 9.48281 24.8092H28.0385C29.1216 24.8092 30.0001 23.9309 30.0001 22.8477C30.0001 21.7643 29.1216 20.8861 28.0385 20.8861Z" />
</svg>
