<svg width="21" height="22" viewBox="0 0 21 22" fill="none" xmlns="http://www.w3.org/2000/svg">
<g clip-path="url(#clip0)">
<path d="M7.62922 0H1.60004C0.7184 0 0.0012207 0.751331 0.0012207 1.67496V7.99123C0.0012207 8.91486 0.7184 9.66619 1.60004 9.66619H7.62922C8.51086 9.66619 9.22804 8.91486 9.22804 7.99123V1.67496C9.2279 0.751331 8.51086 0 7.62922 0Z" />
<path d="M19.4012 0H13.372C12.4904 0 11.7732 0.751331 11.7732 1.67496V7.99123C11.7732 8.91486 12.4904 9.66619 13.372 9.66619H19.4012C20.2828 9.66619 21 8.91486 21 7.99123V1.67496C21 0.751331 20.2828 0 19.4012 0Z" />
<path d="M7.62824 12.3338H1.59907C0.717424 12.3338 0.000244141 13.0851 0.000244141 14.0087V20.325C0.000244141 21.2486 0.717424 21.9999 1.59907 21.9999H7.62824C8.50988 21.9999 9.22706 21.2486 9.22706 20.325V14.0087C9.22692 13.0851 8.50988 12.3338 7.62824 12.3338Z" />
<path d="M19.4012 12.3338H13.372C12.4904 12.3338 11.7732 13.0851 11.7732 14.0088V20.325C11.7732 21.2487 12.4904 22 13.372 22H19.4012C20.2828 21.9999 21 21.2486 21 20.325V14.0087C21 13.0851 20.2828 12.3338 19.4012 12.3338Z" />
</g>
<defs>
<clipPath id="clip0">
<rect width="21" height="22" fill="white"/>
</clipPath>
</defs>
</svg>
