<svg width="33" height="40" viewBox="0 0 33 40" fill="none" xmlns="http://www.w3.org/2000/svg">
<path d="M11.3752 19.0999C10.9177 18.6423 10.1756 18.6423 9.71799 19.0999C9.26034 19.5575 9.26034 20.2995 9.71799 20.7571L13.3638 24.4029C13.5926 24.6317 13.8925 24.7462 14.1923 24.7462C14.4922 24.7462 14.7922 24.6318 15.0209 24.4029L22.3124 17.1114C22.77 16.6538 22.77 15.9118 22.3124 15.4542C21.8548 14.9966 21.1128 14.9966 20.6552 15.4542L14.1923 21.917L11.3752 19.0999Z" fill="white"/>
<path d="M30.8517 5.46863C27.474 5.46863 24.3967 3.61273 22.8209 0.625142C22.6182 0.24062 22.2191 0 21.7844 0H10.2461C9.81142 0 9.41237 0.24062 9.20956 0.625142C7.63381 3.61273 4.55654 5.46863 1.17185 5.46863C0.524676 5.46863 0 5.9933 0 6.64048V18.5739C0 23.3713 1.49895 27.9523 4.33475 31.8217C7.1707 35.6912 11.0876 38.5 15.6624 39.9447C15.7772 39.9809 15.8962 39.999 16.0153 39.999C16.1343 39.999 16.2533 39.9809 16.3682 39.9447C20.9429 38.5 24.8598 35.6912 27.6958 31.8217C30.5316 27.9523 32.0305 23.3713 32.0305 18.5739V6.64048C32.0305 5.9933 31.4988 5.46863 30.8517 5.46863ZM29.6868 18.5739C29.6868 27.2467 24.2084 34.8438 16.0153 37.5949C7.82217 34.8438 2.3437 27.2467 2.3437 18.5739V7.7535C5.89034 7.39351 9.06214 5.40316 10.9277 2.3437H21.1029C22.9675 5.4016 26.1374 7.39148 29.6868 7.75295V18.5739Z" fill="white"/>
<path d="M20.2025 5.11768C19.9799 4.84534 19.6467 4.68738 19.295 4.68738H12.7354C12.3837 4.68738 12.0506 4.84534 11.8281 5.11768C10.1711 7.14506 7.98051 8.64893 5.49322 9.46657C5.01237 9.62461 4.68738 10.0736 4.68738 10.5798V18.5739C4.68738 25.7505 8.95674 32.1679 15.5642 34.9231C15.7086 34.9833 15.862 35.0133 16.0153 35.0133C16.1685 35.0133 16.322 34.9833 16.4663 34.9231C23.0738 32.1679 27.3431 25.7505 27.3431 18.5739V10.5806C27.3431 10.0744 27.0182 9.62547 26.5374 9.46735C24.05 8.6494 21.8594 7.14537 20.2025 5.11768ZM24.9994 18.5739C24.9994 24.6366 21.4893 30.0746 16.0153 32.5635C10.5412 30.0746 7.03108 24.6367 7.03108 18.5739V11.4043C9.43602 10.4696 11.5745 8.97353 13.2784 7.03108H18.752C20.456 8.97377 22.5942 10.4701 24.9994 11.4049V18.5739Z" fill="white"/>
</svg>
