<svg width="65" height="65" viewBox="0 0 65 65" fill="none" xmlns="http://www.w3.org/2000/svg">
<g clip-path="url(#clip0)">
<path d="M47.6074 27.9297C46.2051 27.9297 45.0684 26.7929 45.0684 25.3906C45.0684 24.6906 44.4988 24.1211 43.7988 24.1211C43.0988 24.1211 42.5293 24.6906 42.5293 25.3906C42.5293 26.7929 41.3926 27.9297 39.9902 27.9297C38.5879 27.9297 37.4512 26.7929 37.4512 25.3906C37.4512 21.8905 40.2987 19.043 43.7988 19.043C47.2989 19.043 50.1465 21.8905 50.1465 25.3906C50.1465 26.7929 49.0097 27.9297 47.6074 27.9297ZM27.6758 25.3906C27.6758 21.8905 24.8282 19.043 21.3281 19.043C17.828 19.043 14.9805 21.8905 14.9805 25.3906C14.9805 26.7929 16.1172 27.9297 17.5195 27.9297C18.9219 27.9297 20.0586 26.7929 20.0586 25.3906C20.0586 24.6906 20.6281 24.1211 21.3281 24.1211C22.0281 24.1211 22.5977 24.6906 22.5977 25.3906C22.5977 26.7929 23.7344 27.9297 25.1367 27.9297C26.539 27.9297 27.6758 26.7929 27.6758 25.3906ZM49.3163 60.3163C50.5158 59.5898 50.8991 58.0285 50.1726 56.8292C49.4461 55.6297 47.8847 55.2463 46.6855 55.9729C42.4205 58.5564 37.5153 59.9219 32.5 59.9219C17.3795 59.9219 5.07812 47.6205 5.07812 32.5C5.07812 17.3795 17.3795 5.07812 32.5 5.07812C47.6205 5.07812 59.9219 17.3795 59.9219 32.5C59.9219 37.9068 58.314 43.1697 55.2721 47.7198C54.4927 48.8856 54.8059 50.4623 55.9717 51.2417C57.1375 52.0212 58.7144 51.7078 59.4937 50.5421C63.0958 45.1539 65 38.9151 65 32.5C65 23.8189 61.6194 15.6575 55.4811 9.51895C49.3425 3.38064 41.1811 0 32.5 0C23.8189 0 15.6575 3.38064 9.51895 9.51895C3.38064 15.6575 0 23.8189 0 32.5C0 41.1811 3.38064 49.3425 9.51895 55.4811C15.6575 61.6194 23.8189 65 32.5 65C38.4431 65 44.258 63.3805 49.3163 60.3163ZM43.418 36.9434C42.5913 36.9434 41.859 37.3403 41.3954 37.952C41.3954 37.952 38.0923 41.5137 32.5 41.5137C26.9077 41.5137 23.6046 37.952 23.6046 37.952C23.141 37.3403 22.4088 36.9434 21.582 36.9434C20.1797 36.9434 19.043 38.0801 19.043 39.4824C19.043 40.2049 19.3461 40.8553 19.8306 41.3177C20.2898 41.827 24.7943 46.5918 32.5 46.5918C40.2057 46.5918 44.7102 41.827 45.1694 41.3177C45.6539 40.8553 45.957 40.2049 45.957 39.4824C45.957 38.0801 44.8203 36.9434 43.418 36.9434Z" fill="#FF972F"/>
</g>
<defs>
<clipPath id="clip0">
<rect width="65" height="65" fill="white"/>
</clipPath>
</defs>
</svg>
