<svg width="44" height="44" viewBox="0 0 44 44" fill="none" xmlns="http://www.w3.org/2000/svg">
<g clip-path="url(#clip0)">
<path d="M37.2215 11.67C34.5146 7.55184 30.3661 4.73422 25.5401 3.73624C20.7141 2.73825 15.7884 3.67937 11.6701 6.3861C7.55202 9.09299 4.7344 13.2415 3.73642 18.0675C2.73843 22.8934 3.67955 27.8192 6.38628 31.9374C9.09317 36.0555 13.2416 38.8732 18.0676 39.8711C22.8936 40.8691 27.8194 39.928 31.9376 37.2213C36.0557 34.5144 38.8733 30.3659 39.8713 25.5399C40.8693 20.7139 39.9282 15.7882 37.2215 11.67ZM30.75 35.4145C27.1144 37.8041 22.7659 38.6349 18.5055 37.7539C14.245 36.8728 10.5827 34.3854 8.19309 30.7498C5.80347 27.1142 4.97266 22.7658 5.8537 18.5053C6.73473 14.2448 9.22213 10.5825 12.8577 8.19291C16.4933 5.80329 20.8418 4.97248 25.1023 5.85352C29.3627 6.73455 33.025 9.22195 35.4147 12.8575C37.8043 16.4931 38.6351 20.8416 37.754 25.1021C36.873 29.3625 34.3856 33.0249 30.75 35.4145Z" fill="#6E48AA"/>
<path d="M17.5856 13.5917C18.5025 13.7813 19.0942 14.6816 18.9046 15.5985L21.0219 16.0363C21.4529 13.9519 20.1078 11.9055 18.0234 11.4744C15.939 11.0434 13.8925 12.3885 13.4614 14.4729L15.5787 14.9107C15.7683 13.9938 16.6686 13.4021 17.5856 13.5917Z" fill="#6E48AA"/>
<path d="M28.9332 15.9383C29.8502 16.1279 30.4419 17.0282 30.2523 17.9451L32.3696 18.383C32.8006 16.2986 31.4555 14.2521 29.371 13.821C27.2866 13.39 25.2401 14.7351 24.8091 16.8195L26.9264 17.2573C27.116 16.3404 28.0162 15.7487 28.9332 15.9383Z" fill="#6E48AA"/>
<path d="M10.5807 20.8082C9.33097 26.8517 13.231 32.7852 19.2744 34.0349C25.3178 35.2846 31.2513 31.3847 32.5011 25.3412L32.9828 23.0115L11.0625 18.4785L10.5807 20.8082ZM12.7419 21.0336L30.4277 24.6909L30.3838 24.9034C29.3755 29.7793 24.5882 32.9259 19.7122 31.9176C14.8363 30.9093 11.6897 26.122 12.698 21.2461L12.7419 21.0336Z" fill="#6E48AA"/>
</g>
<defs>
<clipPath id="clip0">
<rect width="36.8994" height="36.8994" fill="white" transform="translate(7.47266) rotate(11.6837)"/>
</clipPath>
</defs>
</svg>
