<svg width="19" height="19" viewBox="0 0 19 19" fill="none" xmlns="http://www.w3.org/2000/svg">
    <path d="M16.1768 2.75914C14.3919 0.980934 12.0175 0.00101471 9.49043 0C6.96902 0 4.59084 0.97905 2.79422 2.75682C0.994415 4.53764 0.00231934 6.90423 0 9.41201V9.41491V9.41665C0.000289917 10.9345 0.399071 12.4657 1.15604 13.8634L0.0259476 19L5.22169 17.8182C6.53763 18.4813 8.00591 18.831 9.48681 18.8316H9.49058C12.0116 18.8316 14.3897 17.8524 16.1866 16.0744C17.988 14.2922 18.9806 11.9286 18.9817 9.41926C18.9825 6.92757 17.9865 4.56228 16.1768 2.75914ZM9.49043 17.3486H9.4871C8.15739 17.3481 6.83987 17.0142 5.67715 16.3829L5.43145 16.2496L1.97651 17.0354L2.72696 13.6248L2.58229 13.3753C1.86301 12.1349 1.48293 10.7656 1.48293 9.41505C1.48568 5.04354 5.07746 1.48293 9.49014 1.48293C11.6219 1.4838 13.6249 2.3102 15.1302 3.80965C16.6582 5.3323 17.4994 7.32432 17.4987 9.41882C17.4969 13.7914 13.9044 17.3486 9.49043 17.3486Z"
          fill="#009EFD"/>
    <path d="M6.908 5.26443H6.49197C6.34715 5.26443 6.11203 5.31865 5.91315 5.53507C5.71412 5.75164 5.15327 6.27509 5.15327 7.33966C5.15327 8.40424 5.93127 9.43286 6.0397 9.57738C6.14827 9.72176 7.54147 11.9762 9.74802 12.8434C11.5819 13.5642 11.9552 13.4208 12.3531 13.3847C12.7511 13.3488 13.6376 12.8614 13.8185 12.3562C13.9994 11.8511 13.9994 11.4179 13.9452 11.3275C13.8908 11.2373 13.746 11.1832 13.529 11.0751C13.3118 10.9668 12.2478 10.4345 12.0488 10.3622C11.8498 10.2901 11.7051 10.2541 11.5603 10.4708C11.4155 10.687 10.9892 11.1874 10.8625 11.3318C10.7359 11.4763 10.6092 11.4945 10.3921 11.3862C10.1749 11.2776 9.4829 11.0451 8.65359 10.3081C8.00809 9.73452 7.56017 9.00306 7.43347 8.78649C7.30692 8.57007 7.41999 8.45294 7.52885 8.34495C7.62641 8.24811 7.75818 8.11562 7.86675 7.98936C7.97518 7.86296 8.00606 7.7728 8.07854 7.62842C8.15087 7.48404 8.11463 7.35764 8.06042 7.2495C8.00606 7.14121 7.58945 6.07127 7.39636 5.64336H7.39651C7.23386 5.28299 7.06267 5.27081 6.908 5.26443Z"
          fill="#009EFD"/>
</svg>
